<svg xmlns="http://www.w3.org/2000/svg" width="46.197" height="34.545" viewBox="0 0 46.197 34.545">
  <g id="robot_1_" data-name="robot (1)" transform="translate(-16.004 0)">
    <path id="Path_1" data-name="Path 1" d="M66.559,25.54c0-8.858-9.789-18.712-21.865-18.712S22.829,16.682,22.829,25.54s9.789,13.365,21.865,13.365S66.559,34.4,66.559,25.54Zm0,0" transform="translate(-5.592 -5.594)" fill="#fff"/>
    <g id="Group_1" data-name="Group 1" transform="translate(16.004 0)">
      <path id="Path_2" data-name="Path 2" d="M60.967,19.946H62.2c-.013-4.891-2.654-9.834-6.811-13.594a24.057,24.057,0,0,0-32.575,0c-4.157,3.76-6.8,8.7-6.811,13.594a11.572,11.572,0,0,0,1.924,6.507,16.753,16.753,0,0,0,8.531,6.126A37.722,37.722,0,0,0,39.1,34.544c6.191,0,11.839-1.14,16.067-3.52a14.651,14.651,0,0,0,5.108-4.572A11.574,11.574,0,0,0,62.2,19.946H59.733a9.091,9.091,0,0,1-1.512,5.143,14.338,14.338,0,0,1-7.312,5.168A35.312,35.312,0,0,1,39.1,32.077c-5.885,0-11.169-1.113-14.854-3.2a12.2,12.2,0,0,1-4.264-3.787,9.1,9.1,0,0,1-1.513-5.143c-.012-3.967,2.241-8.38,6-11.762a21.59,21.59,0,0,1,29.268,0c3.756,3.382,6.009,7.8,6,11.762h1.234Zm0,0" transform="translate(-16.004 0)" fill="#ffe600"/>
      <path id="Path_3" data-name="Path 3" d="M87.144,52.1c0-5.5-7.18-11.614-16.039-11.614S55.067,46.6,55.067,52.1s7.181,8.3,16.039,8.3S87.144,57.6,87.144,52.1Zm0,0" transform="translate(-48.007 -33.171)" fill="#2e2e38"/>
      <path id="Path_4" data-name="Path 4" d="M81.55,46.509h1.234a9.3,9.3,0,0,0-1.437-4.771,16.2,16.2,0,0,0-6.287-5.707,20.353,20.353,0,0,0-9.548-2.371,20.075,20.075,0,0,0-12.089,4,14.9,14.9,0,0,0-3.745,4.078,9.3,9.3,0,0,0-1.438,4.771,6.981,6.981,0,0,0,1.523,4.377,12.708,12.708,0,0,0,6.421,3.924,32.435,32.435,0,0,0,9.328,1.229,28.328,28.328,0,0,0,11.873-2.207,10.718,10.718,0,0,0,3.876-2.946,6.976,6.976,0,0,0,1.523-4.377H80.316a4.484,4.484,0,0,1-1,2.854,10.344,10.344,0,0,1-5.2,3.087,30.086,30.086,0,0,1-8.607,1.122A25.993,25.993,0,0,1,54.7,51.6a8.26,8.26,0,0,1-3-2.242,4.488,4.488,0,0,1-1-2.854,6.846,6.846,0,0,1,1.083-3.5,13.757,13.757,0,0,1,5.335-4.8,17.894,17.894,0,0,1,8.387-2.08A17.624,17.624,0,0,1,76.1,39.62a12.465,12.465,0,0,1,3.13,3.391,6.846,6.846,0,0,1,1.083,3.5Zm0,0" transform="translate(-42.413 -27.577)" fill="#2e2e38"/>
    </g>
    <path id="Path_14" data-name="Path 14" d="M162.377,85.321c-.692-1.533-3.117-1.934-5.417-.9s-3.6,3.122-2.911,4.655,3.118,1.934,5.417.9S163.07,86.854,162.377,85.321Zm0,0" transform="translate(-112.946 -68.695)" fill="#fff"/>
    <path id="Path_15" data-name="Path 15" d="M91.205,84.435c-2.3-1.038-4.724-.637-5.417.9s.611,3.617,2.911,4.655,4.724.637,5.417-.9S93.505,85.473,91.205,84.435Zm0,0" transform="translate(-57.021 -68.703)" fill="#fff"/>
  </g>
</svg>
