<svg xmlns="http://www.w3.org/2000/svg" width="20.134" height="29.286" viewBox="0 0 20.134 29.286">
  <path id="Icon_awesome-microphone" data-name="Icon awesome-microphone" d="M10.067,20.134a5.491,5.491,0,0,0,5.491-5.491V5.491a5.491,5.491,0,1,0-10.982,0v9.152A5.491,5.491,0,0,0,10.067,20.134Zm9.152-9.152H18.3a.915.915,0,0,0-.915.915v2.746a7.33,7.33,0,0,1-8.053,7.286,7.544,7.544,0,0,1-6.59-7.612V11.9a.915.915,0,0,0-.915-.915H.915A.915.915,0,0,0,0,11.9v2.3A10.382,10.382,0,0,0,8.694,24.587V26.54h-3.2a.915.915,0,0,0-.915.915v.915a.915.915,0,0,0,.915.915h9.152a.915.915,0,0,0,.915-.915v-.915a.915.915,0,0,0-.915-.915h-3.2V24.609a10.077,10.077,0,0,0,8.694-9.966V11.9A.915.915,0,0,0,19.219,10.982Z" fill="#c4c4cd"/>
</svg>
