<svg xmlns="http://www.w3.org/2000/svg" width="138" height="50" viewBox="0 0 138 50">
  <g id="Path_23" data-name="Path 23" transform="translate(-158)" fill="#737380">
    <path d="M 271 49 L 183 49 C 179.7595825195313 49 176.6166229248047 48.36558151245117 173.6584320068359 47.11438369750977 C 170.8006439208984 45.90563583374023 168.23388671875 44.17499923706055 166.0294342041016 41.97056198120117 C 163.8249969482422 39.76612854003906 162.0943603515625 37.19936370849609 160.8856353759766 34.34158325195313 C 159.6344146728516 31.38338088989258 159 28.24041748046875 159 25 C 159 21.75958251953125 159.6344146728516 18.61661911010742 160.8856353759766 15.65841865539551 C 162.0943603515625 12.80063629150391 163.8249969482422 10.23387241363525 166.0294342041016 8.029436111450195 C 168.23388671875 5.824999809265137 170.8006439208984 4.094363689422607 173.6584320068359 2.885618209838867 C 176.6166229248047 1.634418129920959 179.7595825195313 1 183 1 L 271 1 L 295 1 L 295 25 C 295 28.24041748046875 294.3655700683594 31.38338088989258 293.1143493652344 34.34158325195313 C 291.9056396484375 37.19936370849609 290.1749877929688 39.76612854003906 287.9705505371094 41.97056198120117 C 285.76611328125 44.17499923706055 283.1993713378906 45.90563583374023 280.3415832519531 47.11436462402344 C 277.3833923339844 48.36558151245117 274.2404174804688 49 271 49 Z" stroke="none"/>
    <path d="M 183 2 C 179.8941345214844 2 176.8822326660156 2.607841491699219 174.0479736328125 3.806640625 C 171.3093872070313 4.964958190917969 168.8494567871094 6.623619079589844 166.7365417480469 8.736541748046875 C 164.6236267089844 10.84946060180664 162.9649658203125 13.30937957763672 161.806640625 16.04798126220703 C 160.6078491210938 18.88224029541016 160 21.89414024353027 160 25 C 160 28.10585975646973 160.6078491210938 31.11775970458984 161.806640625 33.95201873779297 C 162.9649658203125 36.69062042236328 164.6236267089844 39.15053939819336 166.7365417480469 41.26345825195313 C 168.8494567871094 43.37638092041016 171.3093872070313 45.03504180908203 174.0479736328125 46.193359375 C 176.8822326660156 47.39215850830078 179.8941345214844 48 183 48 L 271 48 C 274.1058654785156 48 277.1177673339844 47.39215850830078 279.9520263671875 46.193359375 C 282.6906127929688 45.03504180908203 285.1505432128906 43.37638092041016 287.2634582519531 41.26345825195313 C 289.3763732910156 39.15053939819336 291.0350341796875 36.69062042236328 292.193359375 33.95201873779297 C 293.3921508789063 31.11775970458984 294 28.10585975646973 294 25 L 294 2 L 271 2 L 183 2 M 183 0 L 271 0 C 278.2073364257813 0 296 0 296 0 C 296 0 296 18.40023994445801 296 25 C 296 38.80712127685547 284.80712890625 50 271 50 L 183 50 C 169.19287109375 50 158 38.80712127685547 158 25 C 158 11.19287872314453 169.19287109375 0 183 0 Z" stroke="none" fill="#ffe600"/>
  </g>
</svg>
