<svg xmlns="http://www.w3.org/2000/svg" width="66" height="50" viewBox="0 0 66 50">
  <g id="Path_25" data-name="Path 25" transform="translate(-230)" fill="#737380">
    <path d="M 271 49 L 255 49 C 251.7595825195313 49 248.6166229248047 48.36558151245117 245.6584320068359 47.1143684387207 C 242.8006439208984 45.9056282043457 240.23388671875 44.17499923706055 238.0294342041016 41.97055816650391 C 235.8249969482422 39.76612091064453 234.0943756103516 37.19935989379883 232.8856353759766 34.34157943725586 C 231.6344146728516 31.38338088989258 231 28.24041938781738 231 25 C 231 21.75958061218262 231.6344146728516 18.61661911010742 232.8856353759766 15.65841960906982 C 234.0943756103516 12.80064010620117 235.8249969482422 10.23388004302979 238.0294342041016 8.029439926147461 C 240.23388671875 5.824999809265137 242.8006439208984 4.094369888305664 245.6584320068359 2.885629892349243 C 248.6166229248047 1.634420037269592 251.7595825195313 1 255 1 L 271 1 L 295 1 L 295 25 C 295 28.24041938781738 294.3655700683594 31.38338088989258 293.1143798828125 34.34157943725586 C 291.9056396484375 37.19935989379883 290.1750183105469 39.76612091064453 287.9705810546875 41.97055816650391 C 285.7661437988281 44.17499923706055 283.1993713378906 45.9056282043457 280.3415832519531 47.1143684387207 C 277.3833923339844 48.36558151245117 274.2404174804688 49 271 49 Z" stroke="none"/>
    <path d="M 255 2 C 251.8941345214844 2 248.8822326660156 2.607841491699219 246.0479736328125 3.806629180908203 C 243.3093872070313 4.964958190917969 240.8494567871094 6.623619079589844 238.7365417480469 8.736541748046875 C 236.6236267089844 10.84946823120117 234.9649353027344 13.30939102172852 233.806640625 16.04796981811523 C 232.6078491210938 18.88224029541016 232 21.89414024353027 232 25 C 232 28.10585975646973 232.6078491210938 31.11775970458984 233.806640625 33.95203018188477 C 234.9649353027344 36.69060897827148 236.6236267089844 39.15052795410156 238.7365417480469 41.26345825195313 C 240.8494567871094 43.37638092041016 243.3093872070313 45.03504180908203 246.0479736328125 46.1933708190918 C 248.8822326660156 47.39215850830078 251.8941345214844 48 255 48 L 271 48 C 274.1058654785156 48 277.1177673339844 47.39215850830078 279.9520263671875 46.1933708190918 C 282.6906127929688 45.03504180908203 285.1505432128906 43.37638092041016 287.2634582519531 41.26345825195313 C 289.3763732910156 39.15052795410156 291.0350341796875 36.69060897827148 292.193359375 33.95203018188477 C 293.3921508789063 31.11775970458984 294 28.10585975646973 294 25 L 294 2 L 271 2 L 255 2 M 255 0 L 271 0 C 278.2073364257813 0 296 0 296 0 C 296 0 296 18.40023040771484 296 25 C 296 38.80712127685547 284.80712890625 50 271 50 L 255 50 C 241.19287109375 50 230 38.80712127685547 230 25 C 230 11.19287872314453 241.19287109375 0 255 0 Z" stroke="none" fill="#ffe600"/>
  </g>
</svg>
