<svg xmlns="http://www.w3.org/2000/svg" width="23.639" height="19.7" viewBox="0 0 23.639 19.7">
  <path id="Icon_awesome-volume-up" data-name="Icon awesome-volume-up" d="M8.825,3.384,5.173,7.035H.985A.985.985,0,0,0,0,8.02v5.91a.985.985,0,0,0,.985.985H5.173l3.651,3.65a.986.986,0,0,0,1.681-.7V4.081A.986.986,0,0,0,8.825,3.384Zm9.575-2.1a.993.993,0,0,0-1.09,1.66A9.589,9.589,0,0,1,17.31,19a.993.993,0,1,0,1.09,1.66,11.575,11.575,0,0,0,0-19.374Zm1.3,9.687a7.577,7.577,0,0,0-3.52-6.412.981.981,0,0,0-1.359.306,1,1,0,0,0,.3,1.369,5.609,5.609,0,0,1,0,9.474,1,1,0,0,0-.3,1.369.983.983,0,0,0,1.359.306A7.577,7.577,0,0,0,19.7,10.974ZM13.881,7.82a.985.985,0,1,0-.95,1.726,1.618,1.618,0,0,1,0,2.857.985.985,0,1,0,.95,1.726,3.588,3.588,0,0,0,0-6.309Z" transform="translate(0 -1.125)" fill="#fff"/>
</svg>
