<svg xmlns="http://www.w3.org/2000/svg" xmlns:xlink="http://www.w3.org/1999/xlink" width="1280" height="2255" viewBox="0 0 1280 2255">
  <defs>
    <clipPath id="clip-Web_1280_1">
      <rect width="1280" height="2255"/>
    </clipPath>
  </defs>
  <g id="Web_1280_1" data-name="Web 1280 – 1" clip-path="url(#clip-Web_1280_1)">
    <rect width="1280" height="2255" fill="#fff"/>
    <g id="Group_52" data-name="Group 52" transform="translate(-8100 -2400)" opacity="0.08">
      <rect id="Rectangle_50" data-name="Rectangle 50" width="1280" height="2255" transform="translate(8100 2400)" fill="#fff"/>
      <g id="Layer_3" transform="translate(8264.703 3575.625)">
        <path id="Path_99" data-name="Path 99" d="M888.44,1041.8l127.2,72.68,105.38,37.628,48.908,214.822" transform="translate(-235.729 -518.167)" fill="none" stroke="#596872" stroke-miterlimit="10" stroke-width="1.5"/>
        <path id="Path_100" data-name="Path 100" d="M665.28,1137.943l106.272-73.052,164.887-26,13.62,154.771L807.669,1297.667" transform="translate(-288.878 -518.86)" fill="none" stroke="#596872" stroke-miterlimit="10" stroke-width="1.5"/>
        <line id="Line_22" data-name="Line 22" x1="38.742" y1="10.215" transform="translate(665.774 672.324)" fill="none" stroke="#596872" stroke-miterlimit="10" stroke-width="1.5"/>
        <path id="Path_101" data-name="Path 101" d="M361.28,1297.319l60.67-7.429,112.673,30.954,11.763,82.957H742.573l83.019,27.24H972.934l70.588,89.408" transform="translate(-361.28 -459.081)" fill="none" stroke="#596872" stroke-miterlimit="10" stroke-width="1.5"/>
        <line id="Line_23" data-name="Line 23" y1="57.339" x2="3.714" transform="translate(56.956 834.239)" fill="none" stroke="#596872" stroke-miterlimit="10" stroke-width="1.5"/>
        <path id="Path_102" data-name="Path 102" d="M578.28,1487.209l115.149-16.1v-71.888l-18.882-74.835" transform="translate(-309.598 -450.864)" fill="none" stroke="#596872" stroke-miterlimit="10" stroke-width="1.5"/>
        <path id="Path_103" data-name="Path 103" d="M805.28,1338.97l61.908,4.854v75.528l-9.905,52.5" transform="translate(-255.534 -447.392)" fill="none" stroke="#596872" stroke-miterlimit="10" stroke-width="1.5"/>
        <path id="Path_104" data-name="Path 104" d="M850.38,1436.827,956.739,1299.39l102.025-6.5" transform="translate(-244.793 -458.366)" fill="none" stroke="#596872" stroke-miterlimit="10" stroke-width="1.5"/>
        <path id="Path_105" data-name="Path 105" d="M1026.666,1209.89l-85.434,14.858-4.953,94.41,35.907,80.481,35.907,29.1-7.429,46.122,65.623,59.432,128.15-34.669,12.691-37.145" transform="translate(-224.335 -478.134)" fill="none" stroke="#596872" stroke-miterlimit="10" stroke-width="1.5"/>
        <path id="Path_106" data-name="Path 106" d="M1045.66,1510.254l90.386-186.171,72.581-2.476,30.954-55.718,55.717,27.549h0" transform="translate(-198.284 -464.797)" fill="none" stroke="#596872" stroke-miterlimit="10" stroke-width="1.5"/>
        <path id="Path_107" data-name="Path 107" d="M1085.28,1321.214l41.33-1.238,25.531-36.835" transform="translate(-188.848 -460.688)" fill="none" stroke="#596872" stroke-miterlimit="10" stroke-width="1.5"/>
        <line id="Line_24" data-name="Line 24" y1="54.479" x2="19.811" transform="translate(990.533 859.287)" fill="none" stroke="#596872" stroke-miterlimit="10" stroke-width="1.5"/>
        <path id="Path_108" data-name="Path 108" d="M1075.714,1296.328l21.049-43.5,30.954-81.719-53.86-76.853,86.052-78.351L1093.32,957.6l-18.993-145.559L990.28,682.036l28.478-39.188,48.289-23.958" transform="translate(-211.474 -618.89)" fill="none" stroke="#596872" stroke-miterlimit="10" stroke-width="1.5"/>
        <line id="Line_25" data-name="Line 25" x1="27.24" y2="101.034" transform="translate(948.435 289.731)" fill="none" stroke="#596872" stroke-miterlimit="10" stroke-width="1.5"/>
        <path id="Path_109" data-name="Path 109" d="M1022.28,875.632l13.62-46.741,32.192-39.25,50.8-6.562-4.99-58.169" transform="translate(-203.852 -593.64)" fill="none" stroke="#596872" stroke-miterlimit="10" stroke-width="1.5"/>
        <path id="Path_110" data-name="Path 110" d="M855.42,744.49l90.213-6.476,26-49.551L1022.4,669.89" transform="translate(-243.593 -606.744)" fill="none" stroke="#596872" stroke-miterlimit="10" stroke-width="1.5"/>
        <line id="Line_26" data-name="Line 26" x2="25.989" y2="39.621" transform="translate(704.516 42.098)" fill="none" stroke="#596872" stroke-miterlimit="10" stroke-width="1.5"/>
        <path id="Path_111" data-name="Path 111" d="M1048.28,1088.39l34.669,52.622,99.053,48.6,40.859-39.621,79.552,9.6" transform="translate(-197.66 -507.071)" fill="none" stroke="#596872" stroke-miterlimit="10" stroke-width="1.5"/>
        <path id="Path_112" data-name="Path 112" d="M1230.663,1091.89l-38.383,54.479,38.383,71.814" transform="translate(-163.364 -506.238)" fill="none" stroke="#596872" stroke-miterlimit="10" stroke-width="1.5"/>
      </g>
      <g id="Layer_2" transform="translate(8252.94 3565.41)">
        <circle id="Ellipse_7" data-name="Ellipse 7" cx="14.239" cy="14.239" r="14.239" transform="translate(481.647 540.769)" fill="#596872"/>
        <circle id="Ellipse_1_copy_1_" cx="14.239" cy="14.239" r="14.239" transform="translate(773.854 591.534)" fill="#596872"/>
        <circle id="Ellipse_1_copy_10_1_" cx="16.567" cy="16.567" r="16.567" transform="translate(605.785 891.157)" fill="#596872"/>
        <circle id="Ellipse_1_copy_20_1_" cx="18.263" cy="18.263" r="18.263" transform="translate(705.445 832.666)" fill="#596872"/>
        <circle id="Ellipse_1_copy_21_1_" cx="18.263" cy="18.263" r="18.263" transform="translate(878.788 625.893)" fill="#596872"/>
        <circle id="Ellipse_1_copy_22_1_" cx="18.263" cy="18.263" r="18.263" transform="translate(928.315 851.239)" fill="#596872"/>
        <circle id="Ellipse_1_copy_12_1_" cx="17.025" cy="17.025" r="17.025" transform="translate(509.815 771.996)" fill="#596872"/>
        <circle id="Ellipse_1_copy_13_1_" cx="17.025" cy="17.025" r="17.025" transform="translate(181.701 935.434)" fill="#596872"/>
        <circle id="Ellipse_1_copy_14_1_" cx="18.882" cy="18.882" r="18.882" transform="translate(358.139 859.287)" fill="#596872"/>
        <circle id="Ellipse_1_copy_15_1_" cx="18.882" cy="18.882" r="18.882" transform="translate(376.712 937.291)" fill="#596872"/>
        <circle id="Ellipse_1_copy_16_1_" cx="21.358" cy="21.358" r="21.358" transform="translate(454.716 962.055)" fill="#596872"/>
        <circle id="Ellipse_1_copy_17_1_" cx="21.358" cy="21.358" r="21.358" transform="translate(602.058 960.817)" fill="#596872"/>
        <circle id="Ellipse_1_copy_18_1_" cx="22.658" cy="22.658" r="22.658" transform="translate(651.585 661.18)" fill="#596872"/>
        <circle id="Ellipse_1_copy_23_1_" cx="11.763" cy="11.763" r="11.763" transform="translate(647.561 518.482)" fill="#596872"/>
        <circle id="Ellipse_1_copy_24_1_" cx="11.763" cy="11.763" r="11.763" transform="translate(850.62 577.914)" fill="#596872"/>
        <circle id="Ellipse_1_copy_52_1_" cx="11.763" cy="11.763" r="11.763" transform="translate(549.746 887.455)" fill="#596872"/>
        <circle id="Ellipse_1_copy_55_1_" cx="11.763" cy="11.763" r="11.763" transform="translate(60.67 829.261)" fill="#596872"/>
        <circle id="Ellipse_1_copy_59_1_" cx="14.858" cy="14.858" r="14.858" transform="translate(265.587 1031.702)" fill="#596872"/>
        <circle id="Ellipse_1_copy_60_1_" cx="14.858" cy="14.858" r="14.858" transform="translate(380.736 1015.605)" fill="#596872"/>
        <circle id="Ellipse_1_copy_56_1_" cx="11.763" cy="11.763" r="11.763" transform="translate(0 836.69)" fill="#596872"/>
        <circle id="Ellipse_1_copy_57_1_" cx="11.763" cy="11.763" r="11.763" transform="translate(172.105 860.216)" fill="#596872"/>
        <circle id="Ellipse_1_copy_58_1_" cx="11.763" cy="11.763" r="11.763" transform="translate(56.956 887.455)" fill="#596872"/>
        <circle id="Ellipse_1_copy_53_1_" cx="11.763" cy="11.763" r="11.763" transform="translate(783.759 945.649)" fill="#596872"/>
        <circle id="Ellipse_1_copy_62_1_" cx="13.001" cy="13.001" r="13.001" transform="translate(775.092 993.938)" fill="#596872"/>
        <circle id="Ellipse_1_copy_63_1_" cx="13.001" cy="13.001" r="13.001" transform="translate(969.484 1018.701)" fill="#596872"/>
        <circle id="Ellipse_1_copy_54_1_" cx="11.763" cy="11.763" r="11.763" transform="translate(1010.343 855.263)" fill="#596872"/>
        <circle id="Ellipse_1_copy_25_1_" cx="10.215" cy="10.215" r="10.215" transform="translate(377.95 619.083)" fill="#596872"/>
        <circle id="Ellipse_1_copy_26_1_" cx="10.215" cy="10.215" r="10.215" transform="translate(484.432 590.605)" fill="#596872"/>
        <circle id="Ellipse_1_copy_27_1_" cx="10.215" cy="10.215" r="10.215" transform="translate(625.583 469.265)" fill="#596872"/>
        <circle id="Ellipse_1_copy_28_1_" cx="10.215" cy="10.215" r="10.215" transform="translate(914.076 189.439)" fill="#596872"/>
        <circle id="Ellipse_1_copy_29_1_" cx="10.215" cy="10.215" r="10.215" transform="translate(808.832 21.049)" fill="#596872"/>
        <circle id="Ellipse_1_copy_30_1_" cx="10.215" cy="10.215" r="10.215" transform="translate(857.12)" fill="#596872"/>
        <circle id="Ellipse_1_copy_31_1_" cx="10.215" cy="10.215" r="10.215" transform="translate(707.302 42.098)" fill="#596872"/>
        <circle id="Ellipse_1_copy_32_1_" cx="10.215" cy="10.215" r="10.215" transform="translate(610.725 137.436)" fill="#596872"/>
        <circle id="Ellipse_1_copy_33_1_" cx="10.215" cy="10.215" r="10.215" transform="translate(703.588 127.531)" fill="#596872"/>
        <circle id="Ellipse_1_copy_34_1_" cx="10.215" cy="10.215" r="10.215" transform="translate(833.595 235.251)" fill="#596872"/>
        <circle id="Ellipse_1_copy_35_1_" cx="7.739" cy="7.739" r="7.739" transform="translate(822.452 283.54)" fill="#596872"/>
        <circle id="Ellipse_1_copy_41_1_" cx="7.739" cy="7.739" r="7.739" transform="translate(1071.323 714.422)" fill="#596872"/>
        <circle id="Ellipse_1_copy_42_1_" cx="7.739" cy="7.739" r="7.739" transform="translate(868.264 679.753)" fill="#596872"/>
        <circle id="Ellipse_1_copy_43_1_" cx="7.739" cy="7.739" r="7.739" transform="translate(709.779 684.706)" fill="#596872"/>
        <circle id="Ellipse_1_copy_44_1_" cx="7.739" cy="7.739" r="7.739" transform="translate(806.355 734.232)" fill="#596872"/>
        <circle id="Ellipse_1_copy_45_1_" cx="7.739" cy="7.739" r="7.739" transform="translate(720.922 749.09)" fill="#596872"/>
        <circle id="Ellipse_1_copy_64_1_" cx="7.739" cy="7.739" r="7.739" transform="translate(983.413 986.818)" fill="#596872"/>
        <circle id="Ellipse_1_copy_46_1_" cx="7.739" cy="7.739" r="7.739" transform="translate(1045.321 803.57)" fill="#596872"/>
        <circle id="Ellipse_1_copy_48_1_" cx="7.739" cy="7.739" r="7.739" transform="translate(967.317 823.38)" fill="#596872"/>
        <circle id="Ellipse_1_copy_49_1_" cx="7.739" cy="7.739" r="7.739" transform="translate(900.456 863.002)" fill="#596872"/>
        <circle id="Ellipse_1_copy_50_1_" cx="7.739" cy="7.739" r="7.739" transform="translate(994.557 916.243)" fill="#596872"/>
        <circle id="Ellipse_1_copy_51_1_" cx="7.739" cy="7.739" r="7.739" transform="translate(751.876 921.195)" fill="#596872"/>
        <circle id="Ellipse_1_copy_61_6_" cx="7.739" cy="7.739" r="7.739" transform="translate(605.773 1023.963)" fill="#596872"/>
        <circle id="Ellipse_1_copy_61_1_" cx="7.739" cy="7.739" r="7.739" transform="translate(686.266 1060.873)" fill="#596872"/>
        <circle id="Ellipse_1_copy_47_1_" cx="7.739" cy="7.739" r="7.739" transform="translate(1101.039 833.286)" fill="#596872"/>
        <circle id="Ellipse_1_copy_39_1_" cx="9.596" cy="9.596" r="9.596" transform="translate(1069.466 586.271)" fill="#596872"/>
        <circle id="Ellipse_1_copy_40_1_" cx="9.596" cy="9.596" r="9.596" transform="translate(1109.087 653.132)" fill="#596872"/>
        <circle id="Ellipse_1_copy_36_1_" cx="7.739" cy="7.739" r="7.739" transform="translate(914.076 130.007)" fill="#596872"/>
        <circle id="Ellipse_1_copy_37_1_" cx="7.739" cy="7.739" r="7.739" transform="translate(979.699 292.207)" fill="#596872"/>
        <circle id="Ellipse_1_copy_11_1_" cx="14.239" cy="14.239" r="14.239" transform="translate(808.522 830.5)" fill="#596872"/>
        <circle id="Ellipse_1_copy_19_1_" cx="21.358" cy="21.358" r="21.358" transform="translate(832.357 1045.012)" fill="#596872"/>
        <circle id="Ellipse_1_copy_2_1_" cx="14.239" cy="14.239" r="14.239" transform="translate(913.766 548.198)" fill="#596872"/>
        <circle id="Ellipse_1_copy_8_1_" cx="14.239" cy="14.239" r="14.239" transform="translate(1026.439 636.108)" fill="#596872"/>
        <circle id="Ellipse_1_copy_9_1_" cx="14.239" cy="14.239" r="14.239" transform="translate(981.865 676.967)" fill="#596872"/>
        <circle id="Ellipse_1_copy_3_1_" cx="14.239" cy="14.239" r="14.239" transform="translate(859.287 470.193)" fill="#596872"/>
        <circle id="Ellipse_1_copy_4_1_" cx="14.239" cy="14.239" r="14.239" transform="translate(879.098 333.995)" fill="#596872"/>
        <circle id="Ellipse_1_copy_5_1_" cx="14.239" cy="14.239" r="14.239" transform="translate(861.763 189.13)" fill="#596872"/>
        <circle id="Ellipse_1_copy_38_1_" cx="14.239" cy="14.239" r="14.239" transform="translate(945.959 389.713)" fill="#596872"/>
        <circle id="Ellipse_1_copy_6_1_" cx="14.239" cy="14.239" r="14.239" transform="translate(776.33 59.122)" fill="#596872"/>
        <circle id="Ellipse_1_copy_7_1_" cx="11.763" cy="11.763" r="11.763" transform="translate(728.042 80.171)" fill="#596872"/>
      </g>
      <g id="Layer_3-2" data-name="Layer_3" transform="translate(8113.543 2417.147)">
        <path id="Path_99-2" data-name="Path 99" d="M1169.925,1366.93l-127.2-72.68-105.38-37.628L888.44,1041.8" transform="translate(-717.883 -829.195)" fill="none" stroke="#596872" stroke-miterlimit="10" stroke-width="1.5"/>
        <path id="Path_100-2" data-name="Path 100" d="M950.058,1198.613l-106.272,73.052-164.887,26L665.28,1142.9,807.669,1038.89" transform="translate(-221.707 -756.328)" fill="none" stroke="#596872" stroke-miterlimit="10" stroke-width="1.5"/>
        <line id="Line_22-2" data-name="Line 22" x2="38.742" y2="10.215" transform="translate(400.237 378.829)" fill="none" stroke="#596872" stroke-miterlimit="10" stroke-width="1.5"/>
        <path id="Path_101-2" data-name="Path 101" d="M1043.522,1513.02l-60.67,7.429-112.673-30.954-11.763-82.957H662.229l-83.019-27.24H431.868L361.28,1289.89" transform="translate(61.232 -1289.89)" fill="none" stroke="#596872" stroke-miterlimit="10" stroke-width="1.5"/>
        <line id="Line_23-2" data-name="Line 23" x1="3.714" y2="57.339" transform="translate(1044.083 169.789)" fill="none" stroke="#596872" stroke-miterlimit="10" stroke-width="1.5"/>
        <path id="Path_102-2" data-name="Path 102" d="M693.429,1324.39l-115.149,16.1v71.888l18.882,74.835" transform="translate(142.642 -1299.367)" fill="none" stroke="#596872" stroke-miterlimit="10" stroke-width="1.5"/>
        <path id="Path_103-2" data-name="Path 103" d="M867.188,1471.85,805.28,1467v-75.528l9.905-52.5" transform="translate(-312.18 -1302.061)" fill="none" stroke="#596872" stroke-miterlimit="10" stroke-width="1.5"/>
        <path id="Path_104-2" data-name="Path 104" d="M1058.763,1292.89,952.4,1430.326l-102.025,6.5" transform="translate(-559.597 -1209.983)" fill="none" stroke="#596872" stroke-miterlimit="10" stroke-width="1.5"/>
        <path id="Path_105-2" data-name="Path 105" d="M1116.743,1534.289l85.434-14.858,4.953-94.41-35.907-80.481-35.907-29.1,7.429-46.122-65.623-59.432-128.15,34.669L936.28,1281.7" transform="translate(-814.321 -1204.678)" fill="none" stroke="#596872" stroke-miterlimit="10" stroke-width="1.5"/>
        <path id="Path_106-2" data-name="Path 106" d="M1295.3,1265.89l-90.386,186.171-72.581,2.476-30.954,55.718-55.717-27.549h0" transform="translate(-1037.921 -1249.98)" fill="none" stroke="#596872" stroke-miterlimit="10" stroke-width="1.5"/>
        <path id="Path_107-2" data-name="Path 107" d="M1152.141,1283.14l-41.33,1.238-25.531,36.835" transform="translate(-943.82 -1082.297)" fill="none" stroke="#596872" stroke-miterlimit="10" stroke-width="1.5"/>
        <line id="Line_24-2" data-name="Line 24" x1="19.811" y2="54.479" transform="translate(94.41 147.602)" fill="none" stroke="#596872" stroke-miterlimit="10" stroke-width="1.5"/>
        <path id="Path_108-2" data-name="Path 108" d="M1074.475,618.89l-21.049,43.5-30.954,81.719,53.86,76.853L990.28,899.31l66.589,58.305,18.993,145.559,84.047,130.007-28.478,39.188-48.289,23.958" transform="translate(-833.962 -234.96)" fill="none" stroke="#596872" stroke-miterlimit="10" stroke-width="1.5"/>
        <line id="Line_25-2" data-name="Line 25" y1="101.034" x2="27.24" transform="translate(129.079 670.603)" fill="none" stroke="#596872" stroke-miterlimit="10" stroke-width="1.5"/>
        <path id="Path_109-2" data-name="Path 109" d="M1118.894,724.91l-13.62,46.741-32.192,39.25-50.8,6.562,4.99,58.169" transform="translate(-832.568 54.466)" fill="none" stroke="#596872" stroke-miterlimit="10" stroke-width="1.5"/>
        <path id="Path_110-2" data-name="Path 110" d="M1022.4,669.89l-90.213,6.476-26,49.551L855.42,744.49" transform="translate(-529.473 253.732)" fill="none" stroke="#596872" stroke-miterlimit="10" stroke-width="1.5"/>
        <line id="Line_26-2" data-name="Line 26" x1="25.989" y1="39.621" transform="translate(374.248 979.649)" fill="none" stroke="#596872" stroke-miterlimit="10" stroke-width="1.5"/>
        <path id="Path_111-2" data-name="Path 111" d="M1302.414,1189.61l-34.669-52.622-99.053-48.6-40.859,39.621-79.552-9.6" transform="translate(-1048.28 -709.561)" fill="none" stroke="#596872" stroke-miterlimit="10" stroke-width="1.5"/>
        <path id="Path_112-2" data-name="Path 112" d="M1192.28,1218.183l38.383-54.479-38.383-71.814" transform="translate(-1154.826 -742.468)" fill="none" stroke="#596872" stroke-miterlimit="10" stroke-width="1.5"/>
      </g>
      <g id="Layer_2-2" data-name="Layer_2" transform="translate(8101.781 2401.001)">
        <circle id="Ellipse_7-2" data-name="Ellipse 7" cx="14.239" cy="14.239" r="14.239" transform="translate(618.154 518.482)" fill="#596872"/>
        <circle id="Ellipse_1_copy_1_2" data-name="Ellipse_1_copy_1_" cx="14.239" cy="14.239" r="14.239" transform="translate(325.947 467.717)" fill="#596872"/>
        <circle id="Ellipse_1_copy_10_1_2" data-name="Ellipse_1_copy_10_1_" cx="16.567" cy="16.567" r="16.567" transform="translate(489.36 163.438)" fill="#596872"/>
        <circle id="Ellipse_1_copy_20_1_2" data-name="Ellipse_1_copy_20_1_" cx="18.263" cy="18.263" r="18.263" transform="translate(386.308 218.536)" fill="#596872"/>
        <circle id="Ellipse_1_copy_21_1_2" data-name="Ellipse_1_copy_21_1_" cx="18.263" cy="18.263" r="18.263" transform="translate(212.965 425.31)" fill="#596872"/>
        <circle id="Ellipse_1_copy_22_1_2" data-name="Ellipse_1_copy_22_1_" cx="18.263" cy="18.263" r="18.263" transform="translate(163.438 199.964)" fill="#596872"/>
        <circle id="Ellipse_1_copy_12_1_2" data-name="Ellipse_1_copy_12_1_" cx="17.025" cy="17.025" r="17.025" transform="translate(584.414 281.683)" fill="#596872"/>
        <circle id="Ellipse_1_copy_13_1_2" data-name="Ellipse_1_copy_13_1_" cx="17.025" cy="17.025" r="17.025" transform="translate(912.528 118.245)" fill="#596872"/>
        <circle id="Ellipse_1_copy_14_1_2" data-name="Ellipse_1_copy_14_1_" cx="18.882" cy="18.882" r="18.882" transform="translate(732.375 190.678)" fill="#596872"/>
        <circle id="Ellipse_1_copy_15_1_2" data-name="Ellipse_1_copy_15_1_" cx="18.882" cy="18.882" r="18.882" transform="translate(713.803 112.673)" fill="#596872"/>
        <circle id="Ellipse_1_copy_16_1_2" data-name="Ellipse_1_copy_16_1_" cx="21.358" cy="21.358" r="21.358" transform="translate(630.846 82.957)" fill="#596872"/>
        <circle id="Ellipse_1_copy_17_1_2" data-name="Ellipse_1_copy_17_1_" cx="21.358" cy="21.358" r="21.358" transform="translate(483.504 84.195)" fill="#596872"/>
        <circle id="Ellipse_1_copy_18_1_2" data-name="Ellipse_1_copy_18_1_" cx="22.658" cy="22.658" r="22.658" transform="translate(431.377 381.231)" fill="#596872"/>
        <circle id="Ellipse_1_copy_23_1_2" data-name="Ellipse_1_copy_23_1_" cx="11.763" cy="11.763" r="11.763" transform="translate(457.193 545.722)" fill="#596872"/>
        <circle id="Ellipse_1_copy_24_1_2" data-name="Ellipse_1_copy_24_1_" cx="11.763" cy="11.763" r="11.763" transform="translate(254.134 486.29)" fill="#596872"/>
        <circle id="Ellipse_1_copy_52_1_2" data-name="Ellipse_1_copy_52_1_" cx="11.763" cy="11.763" r="11.763" transform="translate(555.008 176.748)" fill="#596872"/>
        <circle id="Ellipse_1_copy_55_1_2" data-name="Ellipse_1_copy_55_1_" cx="11.763" cy="11.763" r="11.763" transform="translate(1044.083 234.942)" fill="#596872"/>
        <circle id="Ellipse_1_copy_59_1_2" data-name="Ellipse_1_copy_59_1_" cx="14.858" cy="14.858" r="14.858" transform="translate(832.976 26.311)" fill="#596872"/>
        <circle id="Ellipse_1_copy_60_1_2" data-name="Ellipse_1_copy_60_1_" cx="14.858" cy="14.858" r="14.858" transform="translate(717.827 42.407)" fill="#596872"/>
        <circle id="Ellipse_1_copy_56_1_2" data-name="Ellipse_1_copy_56_1_" cx="11.763" cy="11.763" r="11.763" transform="translate(1104.753 227.513)" fill="#596872"/>
        <circle id="Ellipse_1_copy_57_1_2" data-name="Ellipse_1_copy_57_1_" cx="11.763" cy="11.763" r="11.763" transform="translate(932.648 203.988)" fill="#596872"/>
        <circle id="Ellipse_1_copy_58_1_2" data-name="Ellipse_1_copy_58_1_" cx="11.763" cy="11.763" r="11.763" transform="translate(1047.798 176.748)" fill="#596872"/>
        <circle id="Ellipse_1_copy_53_1_2" data-name="Ellipse_1_copy_53_1_" cx="11.763" cy="11.763" r="11.763" transform="translate(320.995 118.554)" fill="#596872"/>
        <circle id="Ellipse_1_copy_62_1_2" data-name="Ellipse_1_copy_62_1_" cx="13.001" cy="13.001" r="13.001" transform="translate(327.185 67.79)" fill="#596872"/>
        <circle id="Ellipse_1_copy_63_1_2" data-name="Ellipse_1_copy_63_1_" cx="13.001" cy="13.001" r="13.001" transform="translate(132.793 43.026)" fill="#596872"/>
        <circle id="Ellipse_1_copy_54_1_2" data-name="Ellipse_1_copy_54_1_" cx="11.763" cy="11.763" r="11.763" transform="translate(94.41 208.94)" fill="#596872"/>
        <circle id="Ellipse_1_copy_25_1_2" data-name="Ellipse_1_copy_25_1_" cx="10.215" cy="10.215" r="10.215" transform="translate(729.899 448.216)" fill="#596872"/>
        <circle id="Ellipse_1_copy_26_1_2" data-name="Ellipse_1_copy_26_1_" cx="10.215" cy="10.215" r="10.215" transform="translate(623.417 476.694)" fill="#596872"/>
        <circle id="Ellipse_1_copy_27_1_2" data-name="Ellipse_1_copy_27_1_" cx="10.215" cy="10.215" r="10.215" transform="translate(482.266 598.034)" fill="#596872"/>
        <circle id="Ellipse_1_copy_28_1_2" data-name="Ellipse_1_copy_28_1_" cx="10.215" cy="10.215" r="10.215" transform="translate(193.773 877.859)" fill="#596872"/>
        <circle id="Ellipse_1_copy_29_1_2" data-name="Ellipse_1_copy_29_1_" cx="10.215" cy="10.215" r="10.215" transform="translate(299.017 1046.25)" fill="#596872"/>
        <circle id="Ellipse_1_copy_30_1_2" data-name="Ellipse_1_copy_30_1_" cx="10.215" cy="10.215" r="10.215" transform="translate(250.729 1067.299)" fill="#596872"/>
        <circle id="Ellipse_1_copy_31_1_2" data-name="Ellipse_1_copy_31_1_" cx="10.215" cy="10.215" r="10.215" transform="translate(400.547 1025.201)" fill="#596872"/>
        <circle id="Ellipse_1_copy_32_1_2" data-name="Ellipse_1_copy_32_1_" cx="10.215" cy="10.215" r="10.215" transform="translate(497.124 929.862)" fill="#596872"/>
        <circle id="Ellipse_1_copy_33_1_2" data-name="Ellipse_1_copy_33_1_" cx="10.215" cy="10.215" r="10.215" transform="translate(404.261 939.768)" fill="#596872"/>
        <circle id="Ellipse_1_copy_34_1_2" data-name="Ellipse_1_copy_34_1_" cx="10.215" cy="10.215" r="10.215" transform="translate(274.254 832.047)" fill="#596872"/>
        <circle id="Ellipse_1_copy_35_1_2" data-name="Ellipse_1_copy_35_1_" cx="7.739" cy="7.739" r="7.739" transform="translate(290.35 788.712)" fill="#596872"/>
        <circle id="Ellipse_1_copy_41_1_2" data-name="Ellipse_1_copy_41_1_" cx="7.739" cy="7.739" r="7.739" transform="translate(41.479 357.83)" fill="#596872"/>
        <circle id="Ellipse_1_copy_42_1_2" data-name="Ellipse_1_copy_42_1_" cx="7.739" cy="7.739" r="7.739" transform="translate(244.538 392.498)" fill="#596872"/>
        <circle id="Ellipse_1_copy_43_1_2" data-name="Ellipse_1_copy_43_1_" cx="7.739" cy="7.739" r="7.739" transform="translate(403.023 387.546)" fill="#596872"/>
        <circle id="Ellipse_1_copy_44_1_2" data-name="Ellipse_1_copy_44_1_" cx="7.739" cy="7.739" r="7.739" transform="translate(306.446 338.019)" fill="#596872"/>
        <circle id="Ellipse_1_copy_45_1_2" data-name="Ellipse_1_copy_45_1_" cx="7.739" cy="7.739" r="7.739" transform="translate(391.879 323.161)" fill="#596872"/>
        <circle id="Ellipse_1_copy_64_1_2" data-name="Ellipse_1_copy_64_1_" cx="7.739" cy="7.739" r="7.739" transform="translate(129.388 85.433)" fill="#596872"/>
        <circle id="Ellipse_1_copy_46_1_2" data-name="Ellipse_1_copy_46_1_" cx="7.739" cy="7.739" r="7.739" transform="translate(67.48 268.682)" fill="#596872"/>
        <circle id="Ellipse_1_copy_48_1_2" data-name="Ellipse_1_copy_48_1_" cx="7.739" cy="7.739" r="7.739" transform="translate(145.485 248.871)" fill="#596872"/>
        <circle id="Ellipse_1_copy_49_1_2" data-name="Ellipse_1_copy_49_1_" cx="7.739" cy="7.739" r="7.739" transform="translate(212.345 209.25)" fill="#596872"/>
        <circle id="Ellipse_1_copy_50_1_2" data-name="Ellipse_1_copy_50_1_" cx="7.739" cy="7.739" r="7.739" transform="translate(118.245 156.009)" fill="#596872"/>
        <circle id="Ellipse_1_copy_51_1_2" data-name="Ellipse_1_copy_51_1_" cx="7.739" cy="7.739" r="7.739" transform="translate(360.925 151.056)" fill="#596872"/>
        <circle id="Ellipse_1_copy_61_6_2" data-name="Ellipse_1_copy_61_6_" cx="7.739" cy="7.739" r="7.739" transform="translate(507.029 48.288)" fill="#596872"/>
        <circle id="Ellipse_1_copy_61_1_2" data-name="Ellipse_1_copy_61_1_" cx="7.739" cy="7.739" r="7.739" transform="translate(426.536 11.379)" fill="#596872"/>
        <circle id="Ellipse_1_copy_47_1_2" data-name="Ellipse_1_copy_47_1_" cx="7.739" cy="7.739" r="7.739" transform="translate(11.763 238.966)" fill="#596872"/>
        <circle id="Ellipse_1_copy_39_1_2" data-name="Ellipse_1_copy_39_1_" cx="9.596" cy="9.596" r="9.596" transform="translate(39.621 482.266)" fill="#596872"/>
        <circle id="Ellipse_1_copy_40_1_2" data-name="Ellipse_1_copy_40_1_" cx="9.596" cy="9.596" r="9.596" transform="translate(0 415.405)" fill="#596872"/>
        <circle id="Ellipse_1_copy_36_1_2" data-name="Ellipse_1_copy_36_1_" cx="7.739" cy="7.739" r="7.739" transform="translate(198.726 942.244)" fill="#596872"/>
        <circle id="Ellipse_1_copy_37_1_2" data-name="Ellipse_1_copy_37_1_" cx="7.739" cy="7.739" r="7.739" transform="translate(133.103 780.044)" fill="#596872"/>
        <circle id="Ellipse_1_copy_11_1_2" data-name="Ellipse_1_copy_11_1_" cx="14.239" cy="14.239" r="14.239" transform="translate(291.279 228.751)" fill="#596872"/>
        <circle id="Ellipse_1_copy_19_1_2" data-name="Ellipse_1_copy_19_1_" cx="21.358" cy="21.358" r="21.358" transform="translate(253.205)" fill="#596872"/>
        <circle id="Ellipse_1_copy_2_1_2" data-name="Ellipse_1_copy_2_1_" cx="14.239" cy="14.239" r="14.239" transform="translate(186.034 511.053)" fill="#596872"/>
        <circle id="Ellipse_1_copy_8_1_2" data-name="Ellipse_1_copy_8_1_" cx="14.239" cy="14.239" r="14.239" transform="translate(73.361 423.143)" fill="#596872"/>
        <circle id="Ellipse_1_copy_9_1_2" data-name="Ellipse_1_copy_9_1_" cx="14.239" cy="14.239" r="14.239" transform="translate(117.935 382.284)" fill="#596872"/>
        <circle id="Ellipse_1_copy_3_1_2" data-name="Ellipse_1_copy_3_1_" cx="14.239" cy="14.239" r="14.239" transform="translate(240.514 589.057)" fill="#596872"/>
        <circle id="Ellipse_1_copy_4_1_2" data-name="Ellipse_1_copy_4_1_" cx="14.239" cy="14.239" r="14.239" transform="translate(220.703 725.256)" fill="#596872"/>
        <circle id="Ellipse_1_copy_5_1_2" data-name="Ellipse_1_copy_5_1_" cx="14.239" cy="14.239" r="14.239" transform="translate(238.037 870.121)" fill="#596872"/>
        <circle id="Ellipse_1_copy_38_1_2" data-name="Ellipse_1_copy_38_1_" cx="14.239" cy="14.239" r="14.239" transform="translate(153.842 669.538)" fill="#596872"/>
        <circle id="Ellipse_1_copy_6_1_2" data-name="Ellipse_1_copy_6_1_" cx="14.239" cy="14.239" r="14.239" transform="translate(323.471 1000.128)" fill="#596872"/>
        <circle id="Ellipse_1_copy_7_1_2" data-name="Ellipse_1_copy_7_1_" cx="11.763" cy="11.763" r="11.763" transform="translate(376.712 984.032)" fill="#596872"/>
      </g>
      <line id="Line_28" data-name="Line 28" x2="18" y2="44" transform="translate(8573.5 3044.827)" fill="none" stroke="#707070" stroke-width="1"/>
      <line id="Line_29" data-name="Line 29" x1="5" y2="43" transform="translate(8732.5 2959.271)" fill="none" stroke="#707070" stroke-width="1"/>
      <line id="Line_30" data-name="Line 30" x1="24" y1="40" transform="translate(8888.5 4044.476)" fill="none" stroke="#707070" stroke-width="1"/>
      <line id="Line_31" data-name="Line 31" x1="6" y2="42" transform="translate(8745.5 4122.904)" fill="none" stroke="#707070" stroke-width="1"/>
    </g>
  </g>
</svg>
