<svg xmlns="http://www.w3.org/2000/svg" width="20.211" height="16" viewBox="0 0 20.211 16">
  <path id="Union_1" data-name="Union 1" d="M-1445.158-3516a.842.842,0,0,1-.842-.842V-3532h1.684v14.316h18.527V-3516Zm14.317-2.526v-12.632A.841.841,0,0,1-1430-3532h2.526a.841.841,0,0,1,.842.841v12.632Zm-5.9,0v-9.263a.843.843,0,0,1,.842-.843h2.527a.843.843,0,0,1,.842.843v9.263Zm-5.895,0v-5.895a.842.842,0,0,1,.842-.842h2.527a.842.842,0,0,1,.842.842v5.895Z" transform="translate(1446 3532)" fill="#2e2e38"/>
</svg>
