<svg xmlns="http://www.w3.org/2000/svg" width="34.072" height="38.953" viewBox="0 0 34.072 38.953">
  <g id="Group_68" data-name="Group 68" transform="translate(-48.047 -444.767)">
    <g id="Group_20" data-name="Group 20" transform="translate(48.047 444.767)">
      <path id="Path_74" data-name="Path 74" d="M1419.027-1065.714Z" transform="translate(-1386.634 1086.214)" fill="#fff" stroke="#707070" stroke-width="1"/>
      <g id="Robo_iconc_1" data-name="Robo iconc 1" transform="translate(0)">
        <g id="Group_19" data-name="Group 19" transform="translate(0 5.693)">
          <path id="Path_71" data-name="Path 71" d="M39.644,20.375v2.291a1.314,1.314,0,0,1-1.052,1.277.381.381,0,0,0-.329.272,6.431,6.431,0,0,1-1.728,2.61A7.41,7.41,0,0,1,34.2,28.318c-.6.244-1.23.432-1.84.667a8.125,8.125,0,0,1-1.315.319c-.46.085-.92.178-1.39.235-.723.094-1.446.169-2.16.244-.479.047-.948.094-1.427.122s-.967.038-1.455.038c-1.023.019-2.047.047-3.061.038-.883-.009-1.756-.038-2.638-.085-.845-.047-1.69-.1-2.535-.207-.864-.1-1.728-.244-2.573-.432a16.839,16.839,0,0,1-2.235-.638,8.641,8.641,0,0,1-2.685-1.549,6.7,6.7,0,0,1-1.606-2.028,7.433,7.433,0,0,1-.394-.883.314.314,0,0,0-.244-.225,1.373,1.373,0,0,1-.723-.413,1.112,1.112,0,0,1-.338-.836c-.009-1.549-.009-3.1,0-4.657a1.288,1.288,0,0,1,1.08-1.268.5.5,0,0,0,.4-.319,10.961,10.961,0,0,1,1.7-2.629,17.02,17.02,0,0,1,1.258-1.343A14.155,14.155,0,0,1,13,10.225c.9-.5,1.822-.967,2.77-1.38a16.178,16.178,0,0,1,2.2-.7,16.944,16.944,0,0,1,1.793-.385c.6-.094,1.221-.131,1.831-.178A7.876,7.876,0,0,1,22.64,7.54c.854.047,1.709.094,2.554.207a16.77,16.77,0,0,1,2.272.451,25.694,25.694,0,0,1,2.469.873,17.189,17.189,0,0,1,4.047,2.385,14.631,14.631,0,0,1,2.676,2.657c.3.4.62.8.883,1.23a11.373,11.373,0,0,1,.629,1.211.267.267,0,0,0,.244.169,1.333,1.333,0,0,1,1.23,1.333C39.635,18.844,39.644,19.6,39.644,20.375ZM22.6,9.023c-.742.056-1.484.075-2.216.169-.714.094-1.418.263-2.122.423a10.687,10.687,0,0,0-2.329.807c-.695.338-1.4.648-2.066,1.033a16.793,16.793,0,0,0-1.728,1.211,16.432,16.432,0,0,0-1.615,1.4,10.752,10.752,0,0,0-2.2,3.164,6.319,6.319,0,0,0-.61,2.648A10.211,10.211,0,0,0,8,22.6c.113.385.16.789.31,1.164a5.249,5.249,0,0,0,2.451,2.807,12.2,12.2,0,0,0,1.549.723c.648.225,1.324.385,1.991.545.526.122,1.061.207,1.6.282.423.056.854.075,1.277.122.46.047.92.122,1.38.15.6.038,1.2.075,1.8.075,1.784,0,3.559-.028,5.343-.038.263,0,.526-.019.789-.038.554-.047,1.1-.094,1.653-.15.4-.038.8-.085,1.2-.15.385-.056.761-.141,1.136-.216.507-.1,1.023-.207,1.521-.338a9.839,9.839,0,0,0,2.413-1,5.8,5.8,0,0,0,1.6-1.352,6.145,6.145,0,0,0,1.211-2.854c.094-.516.122-1.052.178-1.577a6.554,6.554,0,0,0-.122-2.141,8.476,8.476,0,0,0-1.512-3.174,12.072,12.072,0,0,0-2.31-2.432,23.944,23.944,0,0,0-2.2-1.568,16.239,16.239,0,0,0-4.911-1.953A16.119,16.119,0,0,0,22.6,9.023Z" transform="translate(-5.573 -7.534)" fill="#fff"/>
          <path id="Path_72" data-name="Path 72" d="M14.851,32.83c.629.085,1.324.169,2.019.282.9.15,1.8.347,2.7.488a18.185,18.185,0,0,0,4.1.282c.732-.047,1.465-.141,2.2-.235.61-.075,1.221-.178,1.831-.282.629-.1,1.249-.225,1.878-.338a8.495,8.495,0,0,1,2.009-.15,1.906,1.906,0,0,1,1.418.62A2.178,2.178,0,0,1,33.5,34.67a7.794,7.794,0,0,1,.047,1.146A2.189,2.189,0,0,1,33.094,37a9.267,9.267,0,0,1-2.929,2.6,22.8,22.8,0,0,1-3.23,1.662,16.315,16.315,0,0,1-2.873.939,4.235,4.235,0,0,1-1.38.122,9.554,9.554,0,0,1-2.3-.545c-.742-.263-1.493-.545-2.206-.873a17.291,17.291,0,0,1-3.671-2.2,7.792,7.792,0,0,1-1.577-1.615,2.537,2.537,0,0,1-.5-1.859,6,6,0,0,1,.141-1.014,1.747,1.747,0,0,1,1.343-1.268C14.2,32.905,14.485,32.886,14.851,32.83Zm7.99,8.047c.376-.047.667-.066.948-.131a17.578,17.578,0,0,0,3.361-1.164,20.4,20.4,0,0,0,2.563-1.38,10.8,10.8,0,0,0,2.075-1.671,1.531,1.531,0,0,0,.535-1.521c-.075-.263-.131-.535-.46-.582a3.677,3.677,0,0,0-.845-.075,17.318,17.318,0,0,0-1.84.244c-1.258.235-2.516.5-3.793.648a18.385,18.385,0,0,1-3.521.113,17.24,17.24,0,0,1-2.206-.244c-.563-.113-1.127-.2-1.69-.291-.807-.141-1.606-.291-2.413-.4a6.345,6.345,0,0,0-1.268-.019.664.664,0,0,0-.479.244,1.339,1.339,0,0,0-.1,1.192,2.876,2.876,0,0,0,.545.77,9.34,9.34,0,0,0,1.859,1.521A18.787,18.787,0,0,0,19.3,39.8c.592.235,1.192.479,1.8.667S22.315,40.755,22.841,40.877Z" transform="translate(-5.99 -9.078)" fill="#fff"/>
          <path id="Path_73" data-name="Path 73" d="M23.151,25.311c-.911,0-1.831.009-2.742,0-.742-.009-1.493-.028-2.235-.075-.535-.038-1.07-.113-1.6-.188-.441-.056-.873-.141-1.305-.207a8.331,8.331,0,0,1-1.775-.507,5.03,5.03,0,0,1-1.812-1.174,3.753,3.753,0,0,1-.883-1.474,4.927,4.927,0,0,1-.2-2.216,5.4,5.4,0,0,1,1.052-2.545,6.586,6.586,0,0,1,1.408-1.39,10.914,10.914,0,0,1,1.38-.854,10.739,10.739,0,0,1,2.235-.911c.62-.169,1.239-.329,1.859-.469a11,11,0,0,1,1.221-.2c.657-.085,1.324-.16,1.981-.207a9.1,9.1,0,0,1,1.239,0c.873.038,1.746.085,2.62.16a19.772,19.772,0,0,1,1.962.291,14.634,14.634,0,0,1,1.559.413,13.007,13.007,0,0,1,2.648,1.155,7.447,7.447,0,0,1,2.667,2.46,5.776,5.776,0,0,1,.61,1.418,5.654,5.654,0,0,1,.131,1.981,4.049,4.049,0,0,1-.657,2,4.288,4.288,0,0,1-1.962,1.568,9.51,9.51,0,0,1-2.742.7c-.516.066-1.023.141-1.54.2a10.931,10.931,0,0,1-1.108.047c-1.343.009-2.685,0-4.019,0Zm3.624-6.2a3.168,3.168,0,0,0,.629,2.047,1.223,1.223,0,0,0,1.878.3,2.423,2.423,0,0,0,.817-1.446,4.031,4.031,0,0,0,.085-1.305A2.975,2.975,0,0,0,29.536,17a1.766,1.766,0,0,0-.685-.5,1.21,1.21,0,0,0-1.446.526A3.3,3.3,0,0,0,26.775,19.114ZM18.982,19.1c-.019-.169-.038-.338-.047-.507a2.8,2.8,0,0,0-.779-1.756,1.162,1.162,0,0,0-1.361-.31,2.026,2.026,0,0,0-1.052,1.305,3.593,3.593,0,0,0-.178,1.728,3.2,3.2,0,0,0,.657,1.643,1.25,1.25,0,0,0,1.634.394,1.923,1.923,0,0,0,.742-.807A3.815,3.815,0,0,0,18.982,19.1Z" transform="translate(-5.877 -7.86)" fill="#ffe600"/>
        </g>
        <rect id="Rectangle_42" data-name="Rectangle 42" width="1.446" height="6.591" transform="translate(6.796 1.733) rotate(-16.596)" fill="#fff"/>
        <ellipse id="Ellipse_4" data-name="Ellipse 4" cx="1.399" cy="1.399" rx="1.399" ry="1.399" transform="translate(5.997 0)" fill="#fff"/>
        <rect id="Rectangle_43" data-name="Rectangle 43" width="6.591" height="1.446" transform="translate(24.043 7.634) rotate(-73.404)" fill="#fff"/>
        <ellipse id="Ellipse_5" data-name="Ellipse 5" cx="1.399" cy="1.399" rx="1.399" ry="1.399" transform="translate(25.302 0)" fill="#fff"/>
      </g>
    </g>
  </g>
</svg>
