<svg xmlns="http://www.w3.org/2000/svg" width="30.25" height="29" viewBox="0 0 30.25 29">
  <path id="Icon_awesome-microphone-slash" data-name="Icon awesome-microphone-slash" d="M32.9,23.947l-5.938-4.908A9.733,9.733,0,0,0,28.094,14.5V11.781a.906.906,0,0,0-.906-.906h-.906a.906.906,0,0,0-.906.906V14.5a7.045,7.045,0,0,1-.607,2.843l-1.5-1.162a5.332,5.332,0,0,0,.3-1.681V5.438a5.438,5.438,0,1,0-10.875,0V8.007L5.575,2.191A.907.907,0,0,0,4.3,2.35L3.191,3.781A.906.906,0,0,0,3.35,5.053L30.675,26.809a.906.906,0,0,0,1.272-.159l1.112-1.431a.907.907,0,0,0-.16-1.272ZM22.656,26.281H19.484V24.369a9.863,9.863,0,0,0,1.907-.471L18.553,21.7a7.3,7.3,0,0,1-1.153.011,7.335,7.335,0,0,1-6.3-5.769L8.156,13.668v.388a10.281,10.281,0,0,0,8.609,10.291v1.934H13.594a.906.906,0,0,0-.906.906v.906a.906.906,0,0,0,.906.906h9.063a.906.906,0,0,0,.906-.906v-.906A.906.906,0,0,0,22.656,26.281Z" transform="translate(-3)" fill="#787878"/>
</svg>
