<svg id="volume_off-24px" xmlns="http://www.w3.org/2000/svg" width="27" height="27" viewBox="0 0 27 27">
  <path id="Path_340" data-name="Path 340" d="M18.375,13.25a5.125,5.125,0,0,0-2.847-4.59v2.517l2.79,2.79A4.82,4.82,0,0,0,18.375,13.25Zm2.847,0a7.793,7.793,0,0,1-.615,3.007l1.72,1.72A10.018,10.018,0,0,0,23.5,13.25a10.246,10.246,0,0,0-7.972-9.988V5.608A7.978,7.978,0,0,1,21.222,13.25ZM4.446,3,3,4.446,8.387,9.833H3v6.833H7.556l5.694,5.694V14.7l4.84,4.84a7.885,7.885,0,0,1-2.563,1.344v2.346a10.238,10.238,0,0,0,4.2-2.061L22.054,23.5,23.5,22.054,13.25,11.8Zm8.8,1.139-2.38,2.38L13.25,8.9Z" transform="translate(0.25 0.25)" fill="#fff"/>
  <path id="Path_341" data-name="Path 341" d="M0,0H27V27H0Z" fill="none"/>
</svg>
