<svg xmlns="http://www.w3.org/2000/svg" width="1277.753" height="2258.299" viewBox="0 0 1277.753 2258.299">
  <g id="Group_181" data-name="Group 181" transform="translate(-1.781 -0.001)" opacity="0.1">
    <g id="Group_179" data-name="Group 179">
      <g id="Layer_3" transform="translate(11.543 6.147)">
        <path id="Path_99" data-name="Path 99" d="M1169.925,1366.93l-127.2-72.68-105.38-37.628L888.44,1041.8" transform="translate(-717.883 -829.195)" fill="none" stroke="#596872" stroke-miterlimit="10" stroke-width="1.5"/>
        <path id="Path_100" data-name="Path 100" d="M950.058,1198.613l-106.272,73.052-164.887,26L665.28,1142.9,807.669,1038.89" transform="translate(-221.707 -756.328)" fill="none" stroke="#596872" stroke-miterlimit="10" stroke-width="1.5"/>
        <line id="Line_22" data-name="Line 22" x2="38.742" y2="10.215" transform="translate(400.237 378.829)" fill="none" stroke="#596872" stroke-miterlimit="10" stroke-width="1.5"/>
        <path id="Path_101" data-name="Path 101" d="M1043.522,1513.02l-60.67,7.429-112.673-30.954-11.763-82.957H662.229l-83.019-27.24H431.868L361.28,1289.89" transform="translate(61.232 -1289.89)" fill="none" stroke="#596872" stroke-miterlimit="10" stroke-width="1.5"/>
        <line id="Line_23" data-name="Line 23" x1="3.714" y2="57.339" transform="translate(1044.083 169.789)" fill="none" stroke="#596872" stroke-miterlimit="10" stroke-width="1.5"/>
        <path id="Path_102" data-name="Path 102" d="M693.429,1324.39l-115.149,16.1v71.888l18.882,74.835" transform="translate(142.642 -1299.367)" fill="none" stroke="#596872" stroke-miterlimit="10" stroke-width="1.5"/>
        <path id="Path_103" data-name="Path 103" d="M867.188,1471.85,805.28,1467v-75.528l9.905-52.5" transform="translate(-312.18 -1302.061)" fill="none" stroke="#596872" stroke-miterlimit="10" stroke-width="1.5"/>
        <path id="Path_104" data-name="Path 104" d="M1058.763,1292.89,952.4,1430.326l-102.025,6.5" transform="translate(-559.597 -1209.983)" fill="none" stroke="#596872" stroke-miterlimit="10" stroke-width="1.5"/>
        <path id="Path_105" data-name="Path 105" d="M1116.743,1534.289l85.434-14.858,4.953-94.41-35.907-80.481-35.907-29.1,7.429-46.122-65.623-59.432-128.15,34.669L936.28,1281.7" transform="translate(-814.321 -1204.678)" fill="none" stroke="#596872" stroke-miterlimit="10" stroke-width="1.5"/>
        <path id="Path_106" data-name="Path 106" d="M1295.3,1265.89l-90.386,186.171-72.581,2.476-30.954,55.718-55.717-27.549h0" transform="translate(-1037.921 -1249.98)" fill="none" stroke="#596872" stroke-miterlimit="10" stroke-width="1.5"/>
        <path id="Path_107" data-name="Path 107" d="M1152.141,1283.14l-41.33,1.238-25.531,36.835" transform="translate(-943.82 -1082.297)" fill="none" stroke="#596872" stroke-miterlimit="10" stroke-width="1.5"/>
        <line id="Line_24" data-name="Line 24" x1="19.811" y2="54.479" transform="translate(94.41 147.602)" fill="none" stroke="#596872" stroke-miterlimit="10" stroke-width="1.5"/>
        <path id="Path_108" data-name="Path 108" d="M1074.475,618.89l-21.049,43.5-30.954,81.719,53.86,76.853L990.28,899.31l66.589,58.305,18.993,145.559,84.047,130.007-28.478,39.188-48.289,23.958" transform="translate(-833.962 -234.96)" fill="none" stroke="#596872" stroke-miterlimit="10" stroke-width="1.5"/>
        <line id="Line_25" data-name="Line 25" y1="101.034" x2="27.24" transform="translate(129.079 670.603)" fill="none" stroke="#596872" stroke-miterlimit="10" stroke-width="1.5"/>
        <path id="Path_109" data-name="Path 109" d="M1118.894,724.91l-13.62,46.741-32.192,39.25-50.8,6.562,4.99,58.169" transform="translate(-832.568 54.466)" fill="none" stroke="#596872" stroke-miterlimit="10" stroke-width="1.5"/>
        <path id="Path_110" data-name="Path 110" d="M1022.4,669.89l-90.213,6.476-26,49.551L855.42,744.49" transform="translate(-529.473 253.732)" fill="none" stroke="#596872" stroke-miterlimit="10" stroke-width="1.5"/>
        <line id="Line_26" data-name="Line 26" x1="25.989" y1="39.621" transform="translate(374.248 979.649)" fill="none" stroke="#596872" stroke-miterlimit="10" stroke-width="1.5"/>
        <path id="Path_111" data-name="Path 111" d="M1302.414,1189.61l-34.669-52.622-99.053-48.6-40.859,39.621-79.552-9.6" transform="translate(-1048.28 -709.561)" fill="none" stroke="#596872" stroke-miterlimit="10" stroke-width="1.5"/>
        <path id="Path_112" data-name="Path 112" d="M1192.28,1218.183l38.383-54.479-38.383-71.814" transform="translate(-1154.826 -742.468)" fill="none" stroke="#596872" stroke-miterlimit="10" stroke-width="1.5"/>
      </g>
      <circle id="Ellipse_7" data-name="Ellipse 7" cx="14.239" cy="14.239" r="14.239" transform="translate(617.936 508.483)" fill="#596872"/>
      <circle id="Ellipse_1_copy_1_" cx="14.239" cy="14.239" r="14.239" transform="translate(325.728 457.719)" fill="#596872"/>
      <circle id="Ellipse_1_copy_10_1_" cx="15" cy="15" r="15" transform="translate(491.142 152.439)" fill="#596872"/>
      <circle id="Ellipse_1_copy_20_1_" cx="15" cy="15" r="15" transform="translate(386.089 208.538)" fill="#596872"/>
      <circle id="Ellipse_1_copy_21_1_" cx="15" cy="15" r="15" transform="translate(212.746 415.311)" fill="#596872"/>
      <circle id="Ellipse_1_copy_22_1_" cx="15" cy="15" r="15" transform="translate(163.219 189.965)" fill="#596872"/>
      <circle id="Ellipse_1_copy_12_1_" cx="15" cy="15" r="15" transform="translate(584.196 271.684)" fill="#596872"/>
      <circle id="Ellipse_1_copy_13_1_" cx="15" cy="15" r="15" transform="translate(912.31 108.246)" fill="#596872"/>
      <circle id="Ellipse_1_copy_14_1_" cx="10" cy="10" r="10" transform="translate(742.156 181.679)" fill="#596872"/>
      <circle id="Ellipse_1_copy_15_1_" cx="15" cy="15" r="15" transform="translate(713.584 102.675)" fill="#596872"/>
      <circle id="Ellipse_1_copy_16_1_" cx="15" cy="15" r="15" transform="translate(630.627 78.959)" fill="#596872"/>
      <circle id="Ellipse_1_copy_17_1_" cx="15" cy="15" r="15" transform="translate(488.285 74.197)" fill="#596872"/>
      <circle id="Ellipse_1_copy_18_1_" cx="15" cy="15" r="15" transform="translate(439.158 377.233)" fill="#596872"/>
      <circle id="Ellipse_1_copy_23_1_" cx="11.763" cy="11.763" r="11.763" transform="translate(456.974 535.723)" fill="#596872"/>
      <circle id="Ellipse_1_copy_24_1_" cx="11.763" cy="11.763" r="11.763" transform="translate(253.915 476.291)" fill="#596872"/>
      <circle id="Ellipse_1_copy_52_1_" cx="6" cy="6" r="6" transform="translate(557.789 168.75)" fill="#596872"/>
      <circle id="Ellipse_1_copy_55_1_" cx="6" cy="6" r="6" transform="translate(1050.865 230.943)" fill="#596872"/>
      <circle id="Ellipse_1_copy_59_1_" cx="14" cy="14" r="14" transform="translate(832.757 16.313)" fill="#596872"/>
      <circle id="Ellipse_1_copy_60_1_" cx="14" cy="14" r="14" transform="translate(717.608 32.409)" fill="#596872"/>
      <circle id="Ellipse_1_copy_56_1_" cx="6" cy="6" r="6" transform="translate(1111.535 223.514)" fill="#596872"/>
      <circle id="Ellipse_1_copy_57_1_" cx="11.763" cy="11.763" r="11.763" transform="translate(932.43 193.989)" fill="#596872"/>
      <circle id="Ellipse_1_copy_58_1_" cx="6" cy="6" r="6" transform="translate(1054.579 172.75)" fill="#596872"/>
      <circle id="Ellipse_1_copy_53_1_" cx="11.763" cy="11.763" r="11.763" transform="translate(320.776 108.556)" fill="#596872"/>
      <circle id="Ellipse_1_copy_62_1_" cx="13.001" cy="13.001" r="13.001" transform="translate(326.967 57.791)" fill="#596872"/>
      <circle id="Ellipse_1_copy_63_1_" cx="10" cy="10" r="10" transform="translate(135.575 39.028)" fill="#596872"/>
      <circle id="Ellipse_1_copy_54_1_" cx="10" cy="10" r="10" transform="translate(94.191 198.942)" fill="#596872"/>
      <circle id="Ellipse_1_copy_25_1_" cx="10.215" cy="10.215" r="10.215" transform="translate(729.68 438.217)" fill="#596872"/>
      <circle id="Ellipse_1_copy_26_1_" cx="6" cy="6" r="6" transform="translate(627.198 471.695)" fill="#596872"/>
      <circle id="Ellipse_1_copy_27_1_" cx="6" cy="6" r="6" transform="translate(482.047 588.036)" fill="#596872"/>
      <circle id="Ellipse_1_copy_28_1_" cx="7.5" cy="7.5" r="7.5" transform="translate(195.554 869.861)" fill="#596872"/>
      <circle id="Ellipse_1_copy_29_1_" cx="6" cy="6" r="6" transform="translate(298.798 1040.251)" fill="#596872"/>
      <circle id="Ellipse_1_copy_30_1_" cx="6" cy="6" r="6" transform="translate(254.51 1062.3)" fill="#596872"/>
      <ellipse id="Ellipse_1_copy_31_1_" cx="6" cy="5.5" rx="6" ry="5.5" transform="translate(405.328 1018.203)" fill="#596872"/>
      <circle id="Ellipse_1_copy_32_1_" cx="6" cy="6" r="6" transform="translate(496.905 924.864)" fill="#596872"/>
      <circle id="Ellipse_1_copy_33_1_" cx="6" cy="6" r="6" transform="translate(408.042 931.769)" fill="#596872"/>
      <circle id="Ellipse_1_copy_34_1_" cx="7.5" cy="7.5" r="7.5" transform="translate(277.035 823.049)" fill="#596872"/>
      <circle id="Ellipse_1_copy_35_1_" cx="6" cy="6" r="6" transform="translate(290.131 780.713)" fill="#596872"/>
      <circle id="Ellipse_1_copy_41_1_" cx="6" cy="6" r="6" transform="translate(43.26 350.831)" fill="#596872"/>
      <circle id="Ellipse_1_copy_42_1_" cx="7.739" cy="7.739" r="7.739" transform="translate(244.319 382.5)" fill="#596872"/>
      <circle id="Ellipse_1_copy_43_1_" cx="7.739" cy="7.739" r="7.739" transform="translate(402.804 377.547)" fill="#596872"/>
      <circle id="Ellipse_1_copy_44_1_" cx="6" cy="6" r="6" transform="translate(309.227 330.021)" fill="#596872"/>
      <circle id="Ellipse_1_copy_45_1_" cx="6" cy="6" r="6" transform="translate(394.661 313.163)" fill="#596872"/>
      <circle id="Ellipse_1_copy_64_1_" cx="7.739" cy="7.739" r="7.739" transform="translate(129.17 75.435)" fill="#596872"/>
      <circle id="Ellipse_1_copy_46_1_" cx="6" cy="6" r="6" transform="translate(68.261 258.683)" fill="#596872"/>
      <circle id="Ellipse_1_copy_48_1_" cx="6" cy="6" r="6" transform="translate(146.266 238.873)" fill="#596872"/>
      <circle id="Ellipse_1_copy_49_1_" cx="6" cy="6" r="6" transform="translate(213.127 199.251)" fill="#596872"/>
      <circle id="Ellipse_1_copy_50_1_" cx="6" cy="6" r="6" transform="translate(119.026 146.01)" fill="#596872"/>
      <circle id="Ellipse_1_copy_51_1_" cx="6" cy="6" r="6" transform="translate(363.707 141.058)" fill="#596872"/>
      <circle id="Ellipse_1_copy_61_6_" cx="6" cy="6" r="6" transform="translate(509.81 39.29)" fill="#596872"/>
      <circle id="Ellipse_1_copy_61_1_" cx="6" cy="6" r="6" transform="translate(429.317 2.38)" fill="#596872"/>
      <circle id="Ellipse_1_copy_47_1_" cx="6" cy="6" r="6" transform="translate(12.544 231.967)" fill="#596872"/>
      <circle id="Ellipse_1_copy_39_1_" cx="6" cy="6" r="6" transform="translate(41.403 475.267)" fill="#596872"/>
      <circle id="Ellipse_1_copy_40_1_" cx="6" cy="6" r="6" transform="translate(1.781 408.406)" fill="#596872"/>
      <circle id="Ellipse_1_copy_36_1_" cx="6" cy="6" r="6" transform="translate(200.507 932.246)" fill="#596872"/>
      <circle id="Ellipse_1_copy_37_1_" cx="6" cy="6" r="6" transform="translate(133.884 770.046)" fill="#596872"/>
      <circle id="Ellipse_1_copy_11_1_" cx="10" cy="10" r="10" transform="translate(291.06 223.753)" fill="#596872"/>
      <circle id="Ellipse_1_copy_19_1_" cx="15" cy="15" r="15" transform="translate(252.986 0.001)" fill="#596872"/>
      <circle id="Ellipse_1_copy_2_1_" cx="12.5" cy="12.5" r="12.5" transform="translate(185.816 501.054)" fill="#596872"/>
      <circle id="Ellipse_1_copy_8_1_" cx="12.5" cy="12.5" r="12.5" transform="translate(73.143 413.145)" fill="#596872"/>
      <circle id="Ellipse_1_copy_9_1_" cx="14.239" cy="14.239" r="14.239" transform="translate(117.717 372.285)" fill="#596872"/>
      <circle id="Ellipse_1_copy_3_1_" cx="12.5" cy="12.5" r="12.5" transform="translate(240.295 579.059)" fill="#596872"/>
      <circle id="Ellipse_1_copy_4_1_" cx="12.5" cy="12.5" r="12.5" transform="translate(220.484 715.257)" fill="#596872"/>
      <circle id="Ellipse_1_copy_5_1_" cx="12.5" cy="12.5" r="12.5" transform="translate(237.819 860.122)" fill="#596872"/>
      <circle id="Ellipse_1_copy_38_1_" cx="14.239" cy="14.239" r="14.239" transform="translate(153.623 659.54)" fill="#596872"/>
      <circle id="Ellipse_1_copy_6_1_" cx="12.5" cy="12.5" r="12.5" transform="translate(323.252 990.13)" fill="#596872"/>
      <circle id="Ellipse_1_copy_7_1_" cx="7.5" cy="7.5" r="7.5" transform="translate(378.493 979.034)" fill="#596872"/>
      <line id="Line_28" data-name="Line 28" x2="18" y2="44" transform="translate(468.5 548.953)" fill="none" stroke="#707070" stroke-width="1"/>
      <path id="Path_340" data-name="Path 340" d="M5,0,2.5,21.5,0,43" transform="translate(628.5 480.247)" fill="none" stroke="#707070" stroke-width="1"/>
    </g>
    <g id="Group_180" data-name="Group 180" transform="translate(157.781 1184.001)">
      <g id="Layer_3-2" data-name="Layer_3" transform="translate(7.238 6.785)">
        <path id="Path_99-2" data-name="Path 99" d="M888.44,1041.8l127.2,72.68,105.38,37.628,48.908,214.822" transform="translate(-235.729 -518.167)" fill="none" stroke="#596872" stroke-miterlimit="10" stroke-width="1.5"/>
        <path id="Path_100-2" data-name="Path 100" d="M665.28,1137.943l106.272-73.052,164.887-26,13.62,154.771L807.669,1297.667" transform="translate(-288.878 -518.86)" fill="none" stroke="#596872" stroke-miterlimit="10" stroke-width="1.5"/>
        <line id="Line_22-2" data-name="Line 22" x1="38.742" y1="10.215" transform="translate(665.774 672.324)" fill="none" stroke="#596872" stroke-miterlimit="10" stroke-width="1.5"/>
        <path id="Path_101-2" data-name="Path 101" d="M361.28,1297.319l60.67-7.429,112.673,30.954,11.763,82.957H742.573l83.019,27.24H972.934l70.588,89.408" transform="translate(-361.28 -459.081)" fill="none" stroke="#596872" stroke-miterlimit="10" stroke-width="1.5"/>
        <line id="Line_23-2" data-name="Line 23" y1="57.339" x2="3.714" transform="translate(56.956 834.239)" fill="none" stroke="#596872" stroke-miterlimit="10" stroke-width="1.5"/>
        <path id="Path_102-2" data-name="Path 102" d="M578.28,1487.209l115.149-16.1v-71.888l-18.882-74.835" transform="translate(-309.598 -450.864)" fill="none" stroke="#596872" stroke-miterlimit="10" stroke-width="1.5"/>
        <path id="Path_103-2" data-name="Path 103" d="M805.28,1338.97l61.908,4.854v75.528l-9.905,52.5" transform="translate(-255.534 -447.392)" fill="none" stroke="#596872" stroke-miterlimit="10" stroke-width="1.5"/>
        <path id="Path_104-2" data-name="Path 104" d="M850.38,1436.827,956.739,1299.39l102.025-6.5" transform="translate(-244.793 -458.366)" fill="none" stroke="#596872" stroke-miterlimit="10" stroke-width="1.5"/>
        <path id="Path_105-2" data-name="Path 105" d="M1026.666,1209.89l-85.434,14.858-4.953,94.41,35.907,80.481,35.907,29.1-7.429,46.122,65.623,59.432,128.15-34.669,12.691-37.145" transform="translate(-224.335 -478.134)" fill="none" stroke="#596872" stroke-miterlimit="10" stroke-width="1.5"/>
        <path id="Path_106-2" data-name="Path 106" d="M1045.66,1510.254l90.386-186.171,72.581-2.476,30.954-55.718,55.717,27.549h0" transform="translate(-198.284 -464.797)" fill="none" stroke="#596872" stroke-miterlimit="10" stroke-width="1.5"/>
        <path id="Path_107-2" data-name="Path 107" d="M1085.28,1321.214l41.33-1.238,25.531-36.835" transform="translate(-188.848 -460.688)" fill="none" stroke="#596872" stroke-miterlimit="10" stroke-width="1.5"/>
        <line id="Line_24-2" data-name="Line 24" y1="54.479" x2="19.811" transform="translate(990.533 859.287)" fill="none" stroke="#596872" stroke-miterlimit="10" stroke-width="1.5"/>
        <path id="Path_108-2" data-name="Path 108" d="M1075.714,1296.328l21.049-43.5,30.954-81.719-53.86-76.853,86.052-78.351L1093.32,957.6l-18.993-145.559L990.28,682.036l28.478-39.188,48.289-23.958" transform="translate(-211.474 -618.89)" fill="none" stroke="#596872" stroke-miterlimit="10" stroke-width="1.5"/>
        <line id="Line_25-2" data-name="Line 25" x1="27.24" y2="101.034" transform="translate(948.435 289.731)" fill="none" stroke="#596872" stroke-miterlimit="10" stroke-width="1.5"/>
        <path id="Path_109-2" data-name="Path 109" d="M1022.28,875.632l13.62-46.741,32.192-39.25,50.8-6.562-4.99-58.169" transform="translate(-203.852 -593.64)" fill="none" stroke="#596872" stroke-miterlimit="10" stroke-width="1.5"/>
        <path id="Path_110-2" data-name="Path 110" d="M855.42,744.49l90.213-6.476,26-49.551L1022.4,669.89" transform="translate(-243.593 -606.744)" fill="none" stroke="#596872" stroke-miterlimit="10" stroke-width="1.5"/>
        <line id="Line_26-2" data-name="Line 26" x2="25.989" y2="39.621" transform="translate(704.516 42.098)" fill="none" stroke="#596872" stroke-miterlimit="10" stroke-width="1.5"/>
        <path id="Path_111-2" data-name="Path 111" d="M1048.28,1088.39l34.669,52.622,99.053,48.6,40.859-39.621,79.552,9.6" transform="translate(-197.66 -507.071)" fill="none" stroke="#596872" stroke-miterlimit="10" stroke-width="1.5"/>
        <path id="Path_112-2" data-name="Path 112" d="M1230.663,1091.89l-38.383,54.479,38.383,71.814" transform="translate(-163.364 -506.238)" fill="none" stroke="#596872" stroke-miterlimit="10" stroke-width="1.5"/>
      </g>
      <circle id="Ellipse_7-2" data-name="Ellipse 7" cx="14.239" cy="14.239" r="14.239" transform="translate(477.121 537.339)" fill="#596872"/>
      <circle id="Ellipse_1_copy_1_2" data-name="Ellipse_1_copy_1_" cx="14.239" cy="14.239" r="14.239" transform="translate(769.328 588.104)" fill="#596872"/>
      <circle id="Ellipse_1_copy_10_1_2" data-name="Ellipse_1_copy_10_1_" cx="15" cy="15" r="15" transform="translate(602.393 891.861)" fill="#596872"/>
      <circle id="Ellipse_1_copy_20_1_2" data-name="Ellipse_1_copy_20_1_" cx="15" cy="15" r="15" transform="translate(707.446 835.763)" fill="#596872"/>
      <circle id="Ellipse_1_copy_21_1_2" data-name="Ellipse_1_copy_21_1_" cx="15" cy="15" r="15" transform="translate(880.789 628.989)" fill="#596872"/>
      <circle id="Ellipse_1_copy_22_1_2" data-name="Ellipse_1_copy_22_1_" cx="15" cy="15" r="15" transform="translate(930.315 854.335)" fill="#596872"/>
      <circle id="Ellipse_1_copy_12_1_2" data-name="Ellipse_1_copy_12_1_" cx="15" cy="15" r="15" transform="translate(509.339 772.616)" fill="#596872"/>
      <circle id="Ellipse_1_copy_13_1_2" data-name="Ellipse_1_copy_13_1_" cx="15" cy="15" r="15" transform="translate(181.225 936.054)" fill="#596872"/>
      <circle id="Ellipse_1_copy_14_1_2" data-name="Ellipse_1_copy_14_1_" cx="10" cy="10" r="10" transform="translate(361.378 872.621)" fill="#596872"/>
      <circle id="Ellipse_1_copy_15_1_2" data-name="Ellipse_1_copy_15_1_" cx="15" cy="15" r="15" transform="translate(379.951 941.626)" fill="#596872"/>
      <circle id="Ellipse_1_copy_16_1_2" data-name="Ellipse_1_copy_16_1_" cx="15" cy="15" r="15" transform="translate(462.908 965.342)" fill="#596872"/>
      <circle id="Ellipse_1_copy_17_1_2" data-name="Ellipse_1_copy_17_1_" cx="15" cy="15" r="15" transform="translate(605.25 970.104)" fill="#596872"/>
      <circle id="Ellipse_1_copy_18_1_2" data-name="Ellipse_1_copy_18_1_" cx="15" cy="15" r="15" transform="translate(654.376 667.068)" fill="#596872"/>
      <circle id="Ellipse_1_copy_23_1_2" data-name="Ellipse_1_copy_23_1_" cx="11.763" cy="11.763" r="11.763" transform="translate(643.036 515.052)" fill="#596872"/>
      <circle id="Ellipse_1_copy_24_1_2" data-name="Ellipse_1_copy_24_1_" cx="11.763" cy="11.763" r="11.763" transform="translate(846.095 574.484)" fill="#596872"/>
      <circle id="Ellipse_1_copy_52_1_2" data-name="Ellipse_1_copy_52_1_" cx="6" cy="6" r="6" transform="translate(553.746 893.551)" fill="#596872"/>
      <circle id="Ellipse_1_copy_55_1_2" data-name="Ellipse_1_copy_55_1_" cx="6" cy="6" r="6" transform="translate(60.67 831.357)" fill="#596872"/>
      <circle id="Ellipse_1_copy_59_1_2" data-name="Ellipse_1_copy_59_1_" cx="14" cy="14" r="14" transform="translate(262.777 1029.988)" fill="#596872"/>
      <circle id="Ellipse_1_copy_60_1_2" data-name="Ellipse_1_copy_60_1_" cx="14" cy="14" r="14" transform="translate(377.927 1013.892)" fill="#596872"/>
      <circle id="Ellipse_1_copy_56_1_2" data-name="Ellipse_1_copy_56_1_" cx="6" cy="6" r="6" transform="translate(0 838.786)" fill="#596872"/>
      <circle id="Ellipse_1_copy_57_1_2" data-name="Ellipse_1_copy_57_1_" cx="11.763" cy="11.763" r="11.763" transform="translate(167.58 856.786)" fill="#596872"/>
      <circle id="Ellipse_1_copy_58_1_2" data-name="Ellipse_1_copy_58_1_" cx="6" cy="6" r="6" transform="translate(56.956 889.551)" fill="#596872"/>
      <circle id="Ellipse_1_copy_53_1_2" data-name="Ellipse_1_copy_53_1_" cx="11.763" cy="11.763" r="11.763" transform="translate(779.234 942.219)" fill="#596872"/>
      <circle id="Ellipse_1_copy_62_1_2" data-name="Ellipse_1_copy_62_1_" cx="13.001" cy="13.001" r="13.001" transform="translate(770.567 990.508)" fill="#596872"/>
      <circle id="Ellipse_1_copy_63_1_2" data-name="Ellipse_1_copy_63_1_" cx="10" cy="10" r="10" transform="translate(967.96 1015.273)" fill="#596872"/>
      <circle id="Ellipse_1_copy_54_1_2" data-name="Ellipse_1_copy_54_1_" cx="10" cy="10" r="10" transform="translate(1009.343 855.358)" fill="#596872"/>
      <circle id="Ellipse_1_copy_25_1_2" data-name="Ellipse_1_copy_25_1_" cx="10.215" cy="10.215" r="10.215" transform="translate(373.425 615.653)" fill="#596872"/>
      <circle id="Ellipse_1_copy_26_1_2" data-name="Ellipse_1_copy_26_1_" cx="6" cy="6" r="6" transform="translate(484.337 590.605)" fill="#596872"/>
      <circle id="Ellipse_1_copy_27_1_2" data-name="Ellipse_1_copy_27_1_" cx="6" cy="6" r="6" transform="translate(629.488 474.265)" fill="#596872"/>
      <circle id="Ellipse_1_copy_28_1_2" data-name="Ellipse_1_copy_28_1_" cx="7.5" cy="7.5" r="7.5" transform="translate(912.98 189.439)" fill="#596872"/>
      <circle id="Ellipse_1_copy_29_1_2" data-name="Ellipse_1_copy_29_1_" cx="6" cy="6" r="6" transform="translate(812.736 22.049)" fill="#596872"/>
      <circle id="Ellipse_1_copy_30_1_2" data-name="Ellipse_1_copy_30_1_" cx="6" cy="6" r="6" transform="translate(857.025)" fill="#596872"/>
      <ellipse id="Ellipse_1_copy_31_1_2" data-name="Ellipse_1_copy_31_1_" cx="6" cy="5.5" rx="6" ry="5.5" transform="translate(706.207 45.098)" fill="#596872"/>
      <circle id="Ellipse_1_copy_32_1_2" data-name="Ellipse_1_copy_32_1_" cx="6" cy="6" r="6" transform="translate(614.63 137.436)" fill="#596872"/>
      <circle id="Ellipse_1_copy_33_1_2" data-name="Ellipse_1_copy_33_1_" cx="6" cy="6" r="6" transform="translate(703.492 130.531)" fill="#596872"/>
      <circle id="Ellipse_1_copy_34_1_2" data-name="Ellipse_1_copy_34_1_" cx="7.5" cy="7.5" r="7.5" transform="translate(831.5 236.251)" fill="#596872"/>
      <circle id="Ellipse_1_copy_35_1_2" data-name="Ellipse_1_copy_35_1_" cx="6" cy="6" r="6" transform="translate(821.404 281.587)" fill="#596872"/>
      <circle id="Ellipse_1_copy_41_1_2" data-name="Ellipse_1_copy_41_1_" cx="6" cy="6" r="6" transform="translate(1068.275 711.469)" fill="#596872"/>
      <circle id="Ellipse_1_copy_42_1_2" data-name="Ellipse_1_copy_42_1_" cx="7.739" cy="7.739" r="7.739" transform="translate(863.739 676.323)" fill="#596872"/>
      <circle id="Ellipse_1_copy_43_1_2" data-name="Ellipse_1_copy_43_1_" cx="7.739" cy="7.739" r="7.739" transform="translate(705.253 681.276)" fill="#596872"/>
      <circle id="Ellipse_1_copy_44_1_2" data-name="Ellipse_1_copy_44_1_" cx="6" cy="6" r="6" transform="translate(802.307 732.28)" fill="#596872"/>
      <circle id="Ellipse_1_copy_45_1_2" data-name="Ellipse_1_copy_45_1_" cx="6" cy="6" r="6" transform="translate(716.874 749.138)" fill="#596872"/>
      <circle id="Ellipse_1_copy_64_1_2" data-name="Ellipse_1_copy_64_1_" cx="7.739" cy="7.739" r="7.739" transform="translate(978.888 983.388)" fill="#596872"/>
      <circle id="Ellipse_1_copy_46_1_2" data-name="Ellipse_1_copy_46_1_" cx="6" cy="6" r="6" transform="translate(1043.273 803.617)" fill="#596872"/>
      <circle id="Ellipse_1_copy_48_1_2" data-name="Ellipse_1_copy_48_1_" cx="6" cy="6" r="6" transform="translate(965.269 823.427)" fill="#596872"/>
      <circle id="Ellipse_1_copy_49_1_2" data-name="Ellipse_1_copy_49_1_" cx="6" cy="6" r="6" transform="translate(898.408 863.049)" fill="#596872"/>
      <circle id="Ellipse_1_copy_50_1_2" data-name="Ellipse_1_copy_50_1_" cx="6" cy="6" r="6" transform="translate(992.509 916.29)" fill="#596872"/>
      <circle id="Ellipse_1_copy_51_1_2" data-name="Ellipse_1_copy_51_1_" cx="6" cy="6" r="6" transform="translate(747.828 921.243)" fill="#596872"/>
      <circle id="Ellipse_1_copy_61_6_2" data-name="Ellipse_1_copy_61_6_" cx="6" cy="6" r="6" transform="translate(601.725 1023.01)" fill="#596872"/>
      <circle id="Ellipse_1_copy_61_1_2" data-name="Ellipse_1_copy_61_1_" cx="6" cy="6" r="6" transform="translate(682.218 1059.92)" fill="#596872"/>
      <circle id="Ellipse_1_copy_47_1_2" data-name="Ellipse_1_copy_47_1_" cx="6" cy="6" r="6" transform="translate(1098.991 830.333)" fill="#596872"/>
      <circle id="Ellipse_1_copy_39_1_2" data-name="Ellipse_1_copy_39_1_" cx="6" cy="6" r="6" transform="translate(1070.132 587.033)" fill="#596872"/>
      <circle id="Ellipse_1_copy_40_1_2" data-name="Ellipse_1_copy_40_1_" cx="6" cy="6" r="6" transform="translate(1109.753 653.894)" fill="#596872"/>
      <circle id="Ellipse_1_copy_36_1_2" data-name="Ellipse_1_copy_36_1_" cx="6" cy="6" r="6" transform="translate(911.028 130.055)" fill="#596872"/>
      <circle id="Ellipse_1_copy_37_1_2" data-name="Ellipse_1_copy_37_1_" cx="6" cy="6" r="6" transform="translate(977.651 292.254)" fill="#596872"/>
      <circle id="Ellipse_1_copy_11_1_2" data-name="Ellipse_1_copy_11_1_" cx="10" cy="10" r="10" transform="translate(812.475 830.548)" fill="#596872"/>
      <circle id="Ellipse_1_copy_19_1_2" data-name="Ellipse_1_copy_19_1_" cx="15" cy="15" r="15" transform="translate(840.548 1044.299)" fill="#596872"/>
      <circle id="Ellipse_1_copy_2_1_2" data-name="Ellipse_1_copy_2_1_" cx="12.5" cy="12.5" r="12.5" transform="translate(912.719 548.246)" fill="#596872"/>
      <circle id="Ellipse_1_copy_8_1_2" data-name="Ellipse_1_copy_8_1_" cx="12.5" cy="12.5" r="12.5" transform="translate(1025.392 636.156)" fill="#596872"/>
      <circle id="Ellipse_1_copy_9_1_2" data-name="Ellipse_1_copy_9_1_" cx="14.239" cy="14.239" r="14.239" transform="translate(977.34 673.537)" fill="#596872"/>
      <circle id="Ellipse_1_copy_3_1_2" data-name="Ellipse_1_copy_3_1_" cx="12.5" cy="12.5" r="12.5" transform="translate(858.24 470.241)" fill="#596872"/>
      <circle id="Ellipse_1_copy_4_1_2" data-name="Ellipse_1_copy_4_1_" cx="12.5" cy="12.5" r="12.5" transform="translate(878.05 334.043)" fill="#596872"/>
      <circle id="Ellipse_1_copy_5_1_2" data-name="Ellipse_1_copy_5_1_" cx="12.5" cy="12.5" r="12.5" transform="translate(860.716 189.178)" fill="#596872"/>
      <circle id="Ellipse_1_copy_38_1_2" data-name="Ellipse_1_copy_38_1_" cx="14.239" cy="14.239" r="14.239" transform="translate(941.433 386.283)" fill="#596872"/>
      <circle id="Ellipse_1_copy_6_1_2" data-name="Ellipse_1_copy_6_1_" cx="12.5" cy="12.5" r="12.5" transform="translate(775.283 59.17)" fill="#596872"/>
      <circle id="Ellipse_1_copy_7_1_2" data-name="Ellipse_1_copy_7_1_" cx="7.5" cy="7.5" r="7.5" transform="translate(730.042 80.267)" fill="#596872"/>
      <line id="Line_28-2" data-name="Line 28" x1="18" y1="44" transform="translate(637.035 481.347)" fill="none" stroke="#707070" stroke-width="1"/>
      <path id="Path_340-2" data-name="Path 340" d="M0,43,2.5,21.5,5,0" transform="translate(490.035 551.053)" fill="none" stroke="#707070" stroke-width="1"/>
    </g>
  </g>
</svg>
