<svg xmlns="http://www.w3.org/2000/svg" width="54" height="54" viewBox="0 0 54 54">
  <g id="Group_22" data-name="Group 22" transform="translate(-22 -451)">
    <circle id="Ellipse_1" data-name="Ellipse 1" cx="27" cy="27" r="27" transform="translate(22 451)" fill="#ffe600"/>
    <g id="Group_20" data-name="Group 20" transform="translate(0.496 0.567)">
      <path id="Path_74" data-name="Path 74" d="M1414.639-1076.9c-3.932-2.2-4.671-5.649-15.507-5.04s-15.729,7.9-16.486,11.7-.628,9.341,6.517,11.188,14.141,1.606,20.547.868,8.381-4.061,9.36-7.384S1418.572-1074.706,1414.639-1076.9Z" transform="translate(-1352.305 1544.952)" fill="#fdfdfd" stroke="#707070" stroke-width="1"/>
      <path id="Path_75" data-name="Path 75" d="M1396.735-1055.6s6.092.6,8.44,0,5.029-2.37,6.646,0-8.884,9.459-11.387,8.13-10.634-2.215-11.963-7.089S1396.735-1055.6,1396.735-1055.6Z" transform="translate(-1351.658 1547.642)" fill="#fdfdfd" stroke="#707070" stroke-width="1"/>
      <g id="Robo_iconc_1" data-name="Robo iconc 1" transform="translate(28.551 455.2)">
        <g id="Group_19" data-name="Group 19" transform="translate(0 6.716)">
          <path id="Path_71" data-name="Path 71" d="M45.767,22.682v2.7a1.55,1.55,0,0,1-1.241,1.506.449.449,0,0,0-.388.321A7.586,7.586,0,0,1,42.1,30.292a8.741,8.741,0,0,1-2.758,1.761c-.709.288-1.451.51-2.171.786a9.584,9.584,0,0,1-1.551.377c-.543.1-1.086.21-1.639.277-.853.111-1.706.2-2.548.288-.565.055-1.119.111-1.684.144s-1.141.044-1.717.044c-1.207.022-2.415.055-3.611.044-1.041-.011-2.071-.044-3.113-.1-1-.055-1.994-.122-2.991-.244-1.019-.122-2.038-.288-3.035-.51a19.865,19.865,0,0,1-2.636-.753A10.194,10.194,0,0,1,9.48,30.58a7.908,7.908,0,0,1-1.894-2.393,8.769,8.769,0,0,1-.465-1.041.37.37,0,0,0-.288-.266,1.62,1.62,0,0,1-.853-.487,1.312,1.312,0,0,1-.4-.986c-.011-1.828-.011-3.655,0-5.494a1.519,1.519,0,0,1,1.274-1.5.592.592,0,0,0,.476-.377,12.931,12.931,0,0,1,2-3.1,20.079,20.079,0,0,1,1.484-1.584,16.7,16.7,0,0,1,3.511-2.647c1.063-.587,2.149-1.141,3.268-1.628a19.086,19.086,0,0,1,2.592-.831A19.989,19.989,0,0,1,22.306,7.8c.709-.111,1.44-.155,2.16-.21a9.291,9.291,0,0,1,1.241-.044c1.008.055,2.016.111,3.013.244a19.783,19.783,0,0,1,2.681.532,30.312,30.312,0,0,1,2.913,1.03,20.278,20.278,0,0,1,4.774,2.813,17.261,17.261,0,0,1,3.157,3.135c.354.476.731.942,1.041,1.451a13.417,13.417,0,0,1,.742,1.429.315.315,0,0,0,.288.2,1.572,1.572,0,0,1,1.451,1.573C45.756,20.877,45.767,21.774,45.767,22.682ZM25.663,9.291c-.875.066-1.75.089-2.614.2-.842.111-1.673.31-2.5.5a12.608,12.608,0,0,0-2.747.953c-.82.4-1.65.764-2.437,1.218a19.81,19.81,0,0,0-2.038,1.429,19.384,19.384,0,0,0-1.905,1.65,12.684,12.684,0,0,0-2.592,3.733,7.454,7.454,0,0,0-.72,3.124,12.046,12.046,0,0,0,.332,3.212c.133.454.188.93.366,1.374A6.192,6.192,0,0,0,11.7,29.993a14.388,14.388,0,0,0,1.828.853c.764.266,1.562.454,2.348.642.62.144,1.252.244,1.883.332.5.066,1.008.089,1.506.144.543.055,1.086.144,1.628.177.709.044,1.418.089,2.127.089,2.1,0,4.2-.033,6.3-.044.31,0,.62-.022.93-.044.654-.055,1.3-.111,1.949-.177.476-.044.942-.1,1.418-.177.454-.066.9-.166,1.34-.255.6-.122,1.207-.244,1.794-.4A11.607,11.607,0,0,0,39.6,29.96a6.841,6.841,0,0,0,1.883-1.6A7.249,7.249,0,0,0,42.909,25c.111-.609.144-1.241.21-1.861a7.732,7.732,0,0,0-.144-2.525,10,10,0,0,0-1.783-3.744A14.242,14.242,0,0,0,38.467,14a28.247,28.247,0,0,0-2.592-1.85,19.158,19.158,0,0,0-5.793-2.3A19.016,19.016,0,0,0,25.663,9.291Z" transform="translate(-5.573 -7.534)"/>
          <path id="Path_72" data-name="Path 72" d="M15.291,32.83c.742.1,1.562.2,2.381.332,1.063.177,2.127.41,3.19.576a21.453,21.453,0,0,0,4.84.332c.864-.055,1.728-.166,2.592-.277.72-.089,1.44-.21,2.16-.332.742-.122,1.473-.266,2.215-.4a10.021,10.021,0,0,1,2.37-.177,2.248,2.248,0,0,1,1.673.731A2.57,2.57,0,0,1,37.289,35a9.2,9.2,0,0,1,.055,1.351,2.582,2.582,0,0,1-.532,1.4,10.933,10.933,0,0,1-3.456,3.068,26.894,26.894,0,0,1-3.81,1.961,19.247,19.247,0,0,1-3.389,1.108,5,5,0,0,1-1.628.144,11.271,11.271,0,0,1-2.714-.642c-.875-.31-1.761-.642-2.6-1.03a20.4,20.4,0,0,1-4.331-2.592,9.193,9.193,0,0,1-1.861-1.905,2.992,2.992,0,0,1-.587-2.193,7.072,7.072,0,0,1,.166-1.2,2.061,2.061,0,0,1,1.584-1.5C14.526,32.919,14.859,32.9,15.291,32.83Zm9.426,9.493c.443-.055.786-.078,1.119-.155A20.736,20.736,0,0,0,29.8,40.794a24.071,24.071,0,0,0,3.024-1.628,12.739,12.739,0,0,0,2.448-1.972A1.806,1.806,0,0,0,35.9,35.4c-.089-.31-.155-.631-.543-.687a4.337,4.337,0,0,0-1-.089,20.43,20.43,0,0,0-2.171.288c-1.484.277-2.969.587-4.475.764a21.689,21.689,0,0,1-4.154.133,20.338,20.338,0,0,1-2.6-.288c-.665-.133-1.329-.233-1.994-.343-.953-.166-1.894-.343-2.847-.476a7.485,7.485,0,0,0-1.5-.022.783.783,0,0,0-.565.288,1.579,1.579,0,0,0-.122,1.407,3.393,3.393,0,0,0,.642.908,11.018,11.018,0,0,0,2.193,1.794,22.163,22.163,0,0,0,3.766,1.972c.7.277,1.407.565,2.127.786S24.1,42.179,24.717,42.323Z" transform="translate(-4.837 -4.81)"/>
          <path id="Path_73" data-name="Path 73" d="M25.414,27.546c-1.074,0-2.16.011-3.234,0-.875-.011-1.761-.033-2.636-.089-.631-.044-1.263-.133-1.883-.222-.521-.066-1.03-.166-1.54-.244a9.828,9.828,0,0,1-2.093-.6,5.934,5.934,0,0,1-2.138-1.385,4.428,4.428,0,0,1-1.041-1.739,5.813,5.813,0,0,1-.233-2.614,6.368,6.368,0,0,1,1.241-3,7.769,7.769,0,0,1,1.661-1.639,12.875,12.875,0,0,1,1.628-1.008,12.669,12.669,0,0,1,2.636-1.074c.731-.2,1.462-.388,2.193-.554a12.981,12.981,0,0,1,1.44-.233c.775-.1,1.562-.188,2.337-.244a10.735,10.735,0,0,1,1.462,0c1.03.044,2.06.1,3.09.188a23.325,23.325,0,0,1,2.315.343,17.264,17.264,0,0,1,1.839.487,15.344,15.344,0,0,1,3.124,1.362,8.786,8.786,0,0,1,3.146,2.9,6.814,6.814,0,0,1,.72,1.673A6.67,6.67,0,0,1,39.6,22.2a4.777,4.777,0,0,1-.775,2.359,5.058,5.058,0,0,1-2.315,1.85,11.219,11.219,0,0,1-3.234.831c-.609.078-1.207.166-1.817.233a12.894,12.894,0,0,1-1.307.055c-1.584.011-3.168,0-4.741,0C25.414,27.512,25.414,27.524,25.414,27.546Zm4.276-7.311a3.738,3.738,0,0,0,.742,2.415A1.442,1.442,0,0,0,32.647,23,2.858,2.858,0,0,0,33.61,21.3a4.756,4.756,0,0,0,.1-1.54,3.509,3.509,0,0,0-.764-2.016,2.083,2.083,0,0,0-.809-.587,1.428,1.428,0,0,0-1.706.62A3.891,3.891,0,0,0,29.689,20.235ZM20.5,20.213c-.022-.2-.044-.4-.055-.6a3.3,3.3,0,0,0-.919-2.071,1.371,1.371,0,0,0-1.606-.366,2.39,2.39,0,0,0-1.241,1.54,4.239,4.239,0,0,0-.21,2.038,3.772,3.772,0,0,0,.775,1.938,1.475,1.475,0,0,0,1.927.465,2.268,2.268,0,0,0,.875-.953A4.5,4.5,0,0,0,20.5,20.213Z" transform="translate(-5.036 -6.958)"/>
        </g>
        <rect id="Rectangle_42" data-name="Rectangle 42" width="1.706" height="7.776" transform="translate(8.017 2.045) rotate(-16.596)" fill="#020202"/>
        <ellipse id="Ellipse_4" data-name="Ellipse 4" cx="1.65" cy="1.65" rx="1.65" ry="1.65" transform="translate(7.075 0)" fill="#020202"/>
        <rect id="Rectangle_43" data-name="Rectangle 43" width="7.776" height="1.706" transform="translate(28.364 9.005) rotate(-73.404)" fill="#020202"/>
        <ellipse id="Ellipse_5" data-name="Ellipse 5" cx="1.65" cy="1.65" rx="1.65" ry="1.65" transform="translate(29.849 0)" fill="#020202"/>
      </g>
    </g>
  </g>
</svg>
